<?xml version="1.0" encoding="UTF-8"?>
<svg version="1.1" xmlns="http://www.w3.org/2000/svg" width="798" height="244">
<path d="M0 0 C1.57774942 -0.00299577 3.15549811 -0.00639926 4.73324585 -0.01017761 C9.00204069 -0.01897985 13.27081545 -0.02135415 17.53961849 -0.0219934 C20.21187229 -0.02270611 22.88412105 -0.02484462 25.5563736 -0.02749062 C34.89403098 -0.03673194 44.23167413 -0.04082707 53.56933594 -0.04003906 C62.24889899 -0.03943878 70.9283998 -0.04998409 79.60794711 -0.06578273 C87.0799993 -0.07889477 94.55203123 -0.08422142 102.02409482 -0.08358365 C106.47780375 -0.08332972 110.93145733 -0.08612279 115.38515472 -0.0967617 C119.57785563 -0.10650444 123.77044895 -0.10647992 127.96315384 -0.09924507 C129.4932763 -0.09820682 131.02340569 -0.10051641 132.55351639 -0.10660553 C148.12004809 -0.16449186 162.73955454 0.77718844 174.78613281 11.77026367 C186.33955793 24.43089203 186.71731611 39.95564807 186.66992188 56.20410156 C186.67263815 57.78406433 186.67620263 59.36402584 186.68054199 60.94398499 C186.68959191 65.20010768 186.68615275 69.45613246 186.67978382 73.71225667 C186.67468613 78.18605752 186.6794256 82.65985052 186.68255615 87.13365173 C186.6861845 94.64250173 186.6814261 102.15131226 186.671875 109.66015625 C186.66098867 118.31824341 186.6645219 126.97623638 186.67552781 135.63432127 C186.68462827 143.09455417 186.68587262 150.55475885 186.68065047 158.01499552 C186.67754642 162.45910493 186.67707819 166.90317018 186.68372345 171.34727669 C186.68953672 175.52608423 186.6854278 179.70477126 186.67393494 183.8835659 C186.67130969 185.40927049 186.67201651 186.93498536 186.67646027 188.46068573 C186.71747031 203.98186822 185.4227804 217.517654 174.42285156 229.32885742 C163.18520822 239.47546743 150.87607466 240.59278904 136.49951172 240.54931641 C134.79191137 240.55502593 133.08431483 240.56199244 131.37672424 240.57011414 C126.75884185 240.58799725 122.14114999 240.58688619 117.52324343 240.58117175 C113.65912946 240.57807257 109.7950517 240.58418052 105.93094289 240.5902105 C96.81005084 240.60423849 87.68925249 240.60270909 78.56835938 240.59130859 C69.17919524 240.57983164 59.79031688 240.5938999 50.4011904 240.62070507 C42.32105336 240.64290396 34.24100575 240.64948994 26.16084039 240.64362866 C21.34327814 240.64026758 16.525899 240.64261735 11.70836258 240.65987968 C7.17573902 240.67541345 2.6435368 240.67132239 -1.88907051 240.65257454 C-3.54539093 240.64890625 -5.20174303 240.65194535 -6.85803413 240.66246033 C-19.96158172 240.7392491 -31.26196334 238.88792659 -41.58886719 230.14526367 C-50.96314228 220.63869034 -54.21877949 209.59772249 -54.25540161 196.54176331 C-54.24408999 194.93099618 -54.23226274 193.3202326 -54.2199707 191.70947266 C-54.22511905 189.9817227 -54.2324072 188.25397801 -54.24165344 186.52624512 C-54.26005776 181.86707419 -54.24729927 177.20848067 -54.22756314 172.54933429 C-54.21108677 167.65512173 -54.22000186 162.76094317 -54.2250824 157.86671448 C-54.22959293 149.65160988 -54.21379715 141.43673374 -54.18579102 133.22167969 C-54.15373322 123.74552361 -54.15376246 114.26977916 -54.17100579 104.79359382 C-54.18690892 95.6482992 -54.18011367 86.50315442 -54.16306877 77.35786629 C-54.15622488 73.47893306 -54.15720321 69.60012091 -54.16461372 65.7211895 C-54.1723156 61.14827287 -54.16002401 56.57582071 -54.13276482 52.00298309 C-54.12592103 50.33216034 -54.12573961 48.66129387 -54.13298035 46.99047279 C-54.18796274 32.64212812 -51.82404751 21.98977348 -41.84667969 11.27416992 C-30.01801031 -0.13730572 -15.39098908 -0.00584029 0 0 Z " fill="#7761F1" transform="translate(54.5888671875,2.854736328125)"/>
<path d="M0 0 C14.89736594 12.8977195 23.19143214 27.45031399 27.375 46.625 C29.04214532 70.38182074 23.20590888 90.06949825 7.84765625 108.296875 C-4.357449 121.27736341 -22.28792756 129.70962951 -40.0234375 130.53515625 C-50.09534134 130.78269165 -59.80928928 130.67687875 -69.375 127.1875 C-70.21546875 126.9090625 -71.0559375 126.630625 -71.921875 126.34375 C-90.92922399 119.49638204 -104.57292694 104.98763697 -113.125 87.046875 C-120.48079539 70.22049304 -121.42387647 49.02478363 -114.9765625 31.75390625 C-105.8918858 11.52388227 -92.36321329 -2.66560937 -71.6796875 -11.59375 C-47.16325754 -20.63527027 -20.61504943 -15.66229185 0 0 Z " fill="#7862F1" transform="translate(166.375,65.8125)"/>
<path d="M0 0 C14.89736594 12.8977195 23.19143214 27.45031399 27.375 46.625 C29.04214532 70.38182074 23.20590888 90.06949825 7.84765625 108.296875 C-4.357449 121.27736341 -22.28792756 129.70962951 -40.0234375 130.53515625 C-50.09534134 130.78269165 -59.80928928 130.67687875 -69.375 127.1875 C-70.21546875 126.9090625 -71.0559375 126.630625 -71.921875 126.34375 C-90.92922399 119.49638204 -104.57292694 104.98763697 -113.125 87.046875 C-120.48079539 70.22049304 -121.42387647 49.02478363 -114.9765625 31.75390625 C-105.8918858 11.52388227 -92.36321329 -2.66560937 -71.6796875 -11.59375 C-47.16325754 -20.63527027 -20.61504943 -15.66229185 0 0 Z M-69.375 2.1875 C-70.27992187 2.58839844 -71.18484375 2.98929688 -72.1171875 3.40234375 C-87.95565666 11.14210559 -98.24393737 24.73256355 -104.05859375 41.11328125 C-108.37833595 56.45581388 -105.43423444 73.50920265 -98.09375 87.30859375 C-89.64135107 101.46636196 -77.55001132 110.77451077 -61.9609375 115.99609375 C-46.05392574 119.95918087 -29.21169647 117.36240239 -15 109.4375 C-0.286094 99.74363252 9.12837035 86.5777753 13.23022461 69.40087891 C15.29523263 57.82304174 14.70831565 44.82920754 9.625 34.1875 C8.98884766 32.7953125 8.98884766 32.7953125 8.33984375 31.375 C0.84100849 16.33555323 -11.75365776 5.97384581 -27.375 0.1875 C-40.69426909 -3.70013214 -56.76425329 -3.81672119 -69.375 2.1875 Z " fill="#FAF9FD" transform="translate(166.375,65.8125)"/>
<path d="M0 0 C1.70703125 1.19921875 1.70703125 1.19921875 3 3 C3.29296875 5.48046875 3.29296875 5.48046875 3.1875 8.1875 C3.14689453 9.53908203 3.14689453 9.53908203 3.10546875 10.91796875 C3.07066406 11.60503906 3.03585938 12.29210937 3 13 C3.60996826 12.98428955 4.21993652 12.9685791 4.84838867 12.95239258 C7.6279971 12.88980187 10.40745692 12.85093378 13.1875 12.8125 C14.62706055 12.77479492 14.62706055 12.77479492 16.09570312 12.73632812 C25.210159 12.6417144 25.210159 12.6417144 29 16 C30 18.9375 30 18.9375 30 22 C28.84643555 24.16699219 28.84643555 24.16699219 27 26 C24.45629883 26.45410156 24.45629883 26.45410156 21.45703125 26.390625 C20.38388672 26.37773438 19.31074219 26.36484375 18.20507812 26.3515625 C17.08552734 26.31804687 15.96597656 26.28453125 14.8125 26.25 C13.68134766 26.23195313 12.55019531 26.21390625 11.38476562 26.1953125 C8.58948369 26.14813475 5.79463616 26.07639097 3 26 C3 30.62 3 35.24 3 40 C4.815 39.9175 6.63 39.835 8.5 39.75 C14.24457668 39.7770333 18.45927062 40.34921313 23 44 C28.03915146 49.48021504 30.39495099 54.10851877 30.2734375 61.59375 C29.50614112 68.34595815 25.79226727 72.69540738 20.68359375 76.87109375 C17.00485019 79.33781507 13.59953153 79.10494586 9.3125 79.0625 C8.13300781 79.05347656 6.95351562 79.04445313 5.73828125 79.03515625 C4.38283203 79.01775391 4.38283203 79.01775391 3 79 C3.04640625 79.67546875 3.0928125 80.3509375 3.140625 81.046875 C3.43233895 88.256377 3.43233895 88.256377 1.4375 91.6875 C-2.06751372 93.57481508 -4.23363485 93.04621254 -8 92 C-10.13586678 88.79619983 -10.23132175 87.98060033 -10.125 84.3125 C-10.10695313 83.50425781 -10.08890625 82.69601563 -10.0703125 81.86328125 C-10.04710938 81.24839844 -10.02390625 80.63351563 -10 80 C-10.64549805 80.01571045 -11.29099609 80.0314209 -11.95605469 80.04760742 C-14.88728029 80.11005802 -17.81836579 80.1490223 -20.75 80.1875 C-21.76578125 80.21263672 -22.7815625 80.23777344 -23.828125 80.26367188 C-25.29765625 80.27817383 -25.29765625 80.27817383 -26.796875 80.29296875 C-28.14797363 80.31653442 -28.14797363 80.31653442 -29.52636719 80.34057617 C-32.48807887 79.93280004 -33.83763019 79.02915349 -36 77 C-36.53125 75.0625 -36.53125 75.0625 -36.5 73 C-36.5103125 72.319375 -36.520625 71.63875 -36.53125 70.9375 C-35.76751235 68.15210385 -34.43518979 67.4845112 -32 66 C-29.52636719 65.65942383 -29.52636719 65.65942383 -26.796875 65.70703125 C-25.32734375 65.7215332 -25.32734375 65.7215332 -23.828125 65.73632812 C-22.81234375 65.76146484 -21.7965625 65.78660156 -20.75 65.8125 C-19.203125 65.83280273 -19.203125 65.83280273 -17.625 65.85351562 C-15.08310951 65.88881966 -12.5414881 65.94262527 -10 66 C-10 61.71 -10 57.42 -10 53 C-11.85625 53.061875 -13.7125 53.12375 -15.625 53.1875 C-22.2078051 53.17202925 -25.72095094 52.01404335 -30.6875 47.625 C-36.00773363 41.58581587 -36.53832427 37.26204994 -36.34765625 29.3203125 C-35.75108693 23.62274038 -33.09140922 20.87411629 -29 17.25 C-24.30429259 13.72821945 -21.68137915 12.74605698 -15.75 12.875 C-14.67234375 12.89304687 -13.5946875 12.91109375 -12.484375 12.9296875 C-11.25460938 12.96449219 -11.25460938 12.96449219 -10 13 C-10.03480469 12.31292969 -10.06960937 11.62585938 -10.10546875 10.91796875 C-10.13253906 10.01691406 -10.15960938 9.11585937 -10.1875 8.1875 C-10.23970703 6.84751953 -10.23970703 6.84751953 -10.29296875 5.48046875 C-10 3 -10 3 -8.70703125 1.19921875 C-5.86182713 -0.79958597 -3.35035393 -0.35896649 0 0 Z " fill="#FBFAFD" transform="translate(124,77)"/>
<path d="M0 0 C1.12535156 0.00580078 1.12535156 0.00580078 2.2734375 0.01171875 C3.02367187 0.00785156 3.77390625 0.00398438 4.546875 0 C10.14682697 0.01010822 10.14682697 0.01010822 11.2734375 1.13671875 C11.43169008 3.13454001 11.52462921 5.13760709 11.58984375 7.140625 C11.63173828 8.35556641 11.67363281 9.57050781 11.71679688 10.82226562 C11.75611328 12.10166016 11.79542969 13.38105469 11.8359375 14.69921875 C11.87912109 15.98248047 11.92230469 17.26574219 11.96679688 18.58789062 C12.0732855 21.77071728 12.17529712 24.95362549 12.2734375 28.13671875 C12.95446533 28.13148193 13.63549316 28.12624512 14.3371582 28.12084961 C17.42007527 28.10007417 20.5029776 28.08705677 23.5859375 28.07421875 C24.65779297 28.06583984 25.72964844 28.05746094 26.83398438 28.04882812 C27.86201172 28.04560547 28.89003906 28.04238281 29.94921875 28.0390625 C30.89708252 28.03382568 31.84494629 28.02858887 32.8215332 28.02319336 C35.2734375 28.13671875 35.2734375 28.13671875 38.2734375 29.13671875 C38.2734375 19.89671875 38.2734375 10.65671875 38.2734375 1.13671875 C42.13730517 0.36394522 45.15547695 0.0012648 49.0234375 0.01171875 C50.46976562 0.00785156 50.46976562 0.00785156 51.9453125 0.00390625 C54.2734375 0.13671875 54.2734375 0.13671875 55.2734375 1.13671875 C55.36773092 3.31477594 55.39086288 5.49593155 55.38696289 7.67602539 C55.38710892 8.35892136 55.38725494 9.04181732 55.3874054 9.7454071 C55.38670626 12.01259489 55.3789139 14.27970149 55.37109375 16.546875 C55.36922957 18.11486262 55.36780567 19.68285082 55.36680603 21.25083923 C55.36298084 25.38548378 55.35315056 29.52009341 55.34210205 33.65472412 C55.33188794 37.87072273 55.32730841 42.08672697 55.32226562 46.30273438 C55.31152829 54.58074522 55.29445186 62.85872765 55.2734375 71.13671875 C52.28660343 72.63013578 49.52943976 72.26847053 46.2109375 72.26171875 C44.94121094 72.26429688 43.67148437 72.266875 42.36328125 72.26953125 C39.2734375 72.13671875 39.2734375 72.13671875 38.2734375 71.13671875 C38.18576638 69.06409799 38.16647877 66.98851581 38.17578125 64.9140625 C38.17900391 63.65400391 38.18222656 62.39394531 38.18554688 61.09570312 C38.19390347 59.75520766 38.20236843 58.41471287 38.2109375 57.07421875 C38.2159509 55.72981933 38.22051408 54.38541815 38.22460938 53.04101562 C38.23644253 49.73956442 38.25437864 46.43813615 38.2734375 43.13671875 C29.3634375 43.13671875 20.4534375 43.13671875 11.2734375 43.13671875 C11.2734375 52.37671875 11.2734375 61.61671875 11.2734375 71.13671875 C7.73959191 72.31466728 4.87066197 72.26936192 1.1484375 72.26171875 C-0.74261719 72.26558594 -0.74261719 72.26558594 -2.671875 72.26953125 C-5.7265625 72.13671875 -5.7265625 72.13671875 -6.7265625 71.13671875 C-6.82612528 68.96409195 -6.85455969 66.78818769 -6.85595703 64.61328125 C-6.85770935 63.93199158 -6.85946167 63.2507019 -6.86126709 62.54876709 C-6.86568492 60.28639208 -6.86274788 58.02409462 -6.859375 55.76171875 C-6.86004806 54.19612615 -6.8610181 52.63053365 -6.86227417 51.06494141 C-6.86375105 47.7796123 -6.86159691 44.49431033 -6.85693359 41.20898438 C-6.8512363 36.98851359 -6.85451536 32.76810639 -6.86050606 28.54763794 C-6.86411194 25.31355303 -6.86297296 22.0794833 -6.86037827 18.84539795 C-6.85970907 17.28879794 -6.86053716 15.73219657 -6.86285782 14.17559814 C-6.8653848 12.00374679 -6.86154315 9.83199979 -6.85595703 7.66015625 C-6.85516144 6.42185059 -6.85436584 5.18354492 -6.85354614 3.90771484 C-6.62699699 -1.03596768 -4.40968772 0.00795973 0 0 Z " fill="#6442DD" transform="translate(422.7265625,95.86328125)"/>
<path d="M0 0 C0.79075928 0.00523682 1.58151855 0.01047363 2.39624023 0.01586914 C3.67724609 0.02070312 3.67724609 0.02070312 4.98413086 0.02563477 C5.88196289 0.03401367 6.77979492 0.04239258 7.70483398 0.05102539 C8.6065332 0.05553711 9.50823242 0.06004883 10.43725586 0.06469727 C12.67234712 0.07652315 14.90730835 0.09300319 17.14233398 0.11352539 C21.96714141 11.00339957 25.76235663 22.23754907 29.64233398 33.48852539 C30.62375603 36.32374462 31.60623514 39.15859433 32.58935547 41.9932251 C33.22329112 43.82303057 33.8556443 45.65338513 34.48632812 47.48431396 C35.87146062 51.49770113 37.27288276 55.50074828 38.75952148 59.4777832 C39.00069702 60.12792389 39.24187256 60.77806458 39.49035645 61.44790649 C40.12255054 63.14092047 40.76575401 64.82981239 41.40991211 66.51831055 C42.14233398 69.11352539 42.14233398 69.11352539 41.14233398 72.11352539 C35.53233398 72.11352539 29.92233398 72.11352539 24.14233398 72.11352539 C22.01923706 66.70927867 20.57666718 61.85085816 19.14233398 56.11352539 C11.22233398 56.11352539 3.30233398 56.11352539 -4.85766602 56.11352539 C-5.84766602 59.74352539 -6.83766602 63.37352539 -7.85766602 67.11352539 C-8.51766602 68.76352539 -9.17766602 70.41352539 -9.85766602 72.11352539 C-15.46766602 72.11352539 -21.07766602 72.11352539 -26.85766602 72.11352539 C-28.10252505 68.3789483 -27.4412531 67.25728971 -26.10693359 63.60742188 C-25.69933304 62.47872177 -25.29173248 61.35002167 -24.8717804 60.18711853 C-24.41981796 58.96529373 -23.96785553 57.74346893 -23.50219727 56.48461914 C-23.03876684 55.21276494 -22.57610651 53.94062989 -22.11418152 52.66822815 C-20.89258515 49.31037011 -19.65968938 45.95676546 -18.42468262 42.6038208 C-17.42839841 39.89325401 -16.44004996 37.17982946 -15.45218372 34.46618557 C-2.9695915 0.1814772 -2.9695915 0.1814772 0 0 Z M6.14233398 19.11352539 C3.83233398 26.37352539 1.52233398 33.63352539 -0.85766602 41.11352539 C2.42752874 42.20859031 4.87896814 42.21313148 8.32983398 42.17602539 C9.41651367 42.16700195 10.50319336 42.15797852 11.62280273 42.14868164 C12.45424805 42.13708008 13.28569336 42.12547852 14.14233398 42.11352539 C12.87758871 34.59161926 11.11441177 27.16060044 8.14233398 20.11352539 C7.48233398 19.78352539 6.82233398 19.45352539 6.14233398 19.11352539 Z " fill="#5345E1" transform="translate(307.857666015625,95.886474609375)"/>
<path d="M0 0 C1.34309338 0.00648916 2.68619354 0.01170591 4.02929688 0.015625 C13.7829503 0.0954503 13.7829503 0.0954503 14.9375 1.25 C15.03076716 2.81547048 15.05495582 4.38512772 15.05102539 5.95336914 C15.05094986 6.95433121 15.05087433 7.95529327 15.05079651 8.98658752 C15.04563522 10.0751152 15.04047394 11.16364288 15.03515625 12.28515625 C15.0337413 13.39354355 15.03232635 14.50193085 15.03086853 15.64390564 C15.02525033 19.20013069 15.01269475 22.75629383 15 26.3125 C14.99498734 28.71679597 14.99042403 31.12109292 14.98632812 33.52539062 C14.97527499 39.43361504 14.95851917 45.3418031 14.9375 51.25 C11.54357349 52.38130884 8.88415128 52.3829194 5.3125 52.375 C4.14460937 52.37757813 2.97671875 52.38015625 1.7734375 52.3828125 C-1.0625 52.25 -1.0625 52.25 -2.0625 51.25 C-2.14901611 49.83429877 -2.16954904 48.414405 -2.16015625 46.99609375 C-2.15693359 46.14208984 -2.15371094 45.28808594 -2.15039062 44.40820312 C-2.13782227 43.06145508 -2.13782227 43.06145508 -2.125 41.6875 C-2.12048828 40.78580078 -2.11597656 39.88410156 -2.11132812 38.95507812 C-2.09950225 36.71998686 -2.0830222 34.48502563 -2.0625 32.25 C-5.52735707 32.87032476 -5.52735707 32.87032476 -9.0625 34.25 C-10.43398852 36.48933598 -10.43398852 36.48933598 -11.0625 39.25 C-12.04032958 41.34383072 -13.04130477 43.42697369 -14.0625 45.5 C-14.578125 46.55703125 -15.09375 47.6140625 -15.625 48.703125 C-17.0625 51.25 -17.0625 51.25 -19.0625 52.25 C-21.5757797 52.37393466 -24.04920114 52.43515112 -26.5625 52.4375 C-27.25214844 52.44974609 -27.94179688 52.46199219 -28.65234375 52.47460938 C-30.45727494 52.47988695 -32.26167842 52.37184458 -34.0625 52.25 C-34.7225 51.59 -35.3825 50.93 -36.0625 50.25 C-34.67707508 47.68137994 -33.27978761 45.12050471 -31.875 42.5625 C-31.48763672 41.84126953 -31.10027344 41.12003906 -30.70117188 40.37695312 C-28.26747202 35.97215752 -25.80621446 32.62133789 -22.0625 29.25 C-23.4546875 28.38375 -23.4546875 28.38375 -24.875 27.5 C-28.51850433 24.92811459 -30.68610707 23.15530683 -31.56640625 18.69921875 C-31.66786074 13.91733057 -31.64030927 10.17313753 -28.6875 6.25 C-20.8703053 -0.98792653 -9.99009875 -0.15912552 0 0 Z M-14.0625 14.25 C-14.64595476 17.29253508 -14.64595476 17.29253508 -14.0625 20.25 C-12.25056994 22.49324836 -12.25056994 22.49324836 -9.6796875 22.4453125 C-8.77476562 22.42210937 -7.86984375 22.39890625 -6.9375 22.375 C-5.32875 22.33375 -3.72 22.2925 -2.0625 22.25 C-2.0625 18.62 -2.0625 14.99 -2.0625 11.25 C-6.9290175 10.96373426 -10.33864035 10.86467304 -14.0625 14.25 Z " fill="#6D3DE5" transform="translate(522.0625,115.75)"/>
<path d="M0 0 C0.70253906 0.00386719 1.40507813 0.00773437 2.12890625 0.01171875 C2.83144531 0.00785156 3.53398438 0.00398438 4.2578125 0 C9.50229247 0.01010497 9.50229247 0.01010497 10.62890625 1.13671875 C10.86591864 3.99549784 11.05109807 6.83555172 11.19140625 9.69921875 C11.23458984 10.50552734 11.27777344 11.31183594 11.32226562 12.14257812 C11.42865887 14.1404068 11.52931513 16.13853945 11.62890625 18.13671875 C15.91890625 18.13671875 20.20890625 18.13671875 24.62890625 18.13671875 C24.95890625 12.52671875 25.28890625 6.91671875 25.62890625 1.13671875 C33.59850084 -0.00179476 33.59850084 -0.00179476 37.50390625 0.01171875 C38.26445313 0.00914063 39.025 0.0065625 39.80859375 0.00390625 C41.62890625 0.13671875 41.62890625 0.13671875 42.62890625 1.13671875 C42.75663081 2.66506538 42.81720609 4.19910028 42.85009766 5.73242188 C42.87327057 6.7101355 42.89644348 7.68784912 42.9203186 8.69519043 C42.94016815 9.75870728 42.9600177 10.82222412 42.98046875 11.91796875 C43.00362152 13.00178833 43.02677429 14.08560791 43.05062866 15.20227051 C43.0983458 17.49889307 43.14357019 19.79556855 43.18652344 22.09228516 C43.25361913 25.62161568 43.33134902 29.1506013 43.41015625 32.6796875 C43.45506888 34.90493506 43.49936067 37.13019525 43.54296875 39.35546875 C43.56686676 40.4189856 43.59076477 41.48250244 43.61538696 42.57824707 C43.63225555 43.55596069 43.64912415 44.53367432 43.66650391 45.54101562 C43.68347321 46.40625854 43.7004425 47.27150146 43.71792603 48.16296387 C43.62890625 50.13671875 43.62890625 50.13671875 42.62890625 51.13671875 C40.14321249 51.40084205 37.6840701 51.605208 35.19140625 51.76171875 C34.49724609 51.81328125 33.80308594 51.86484375 33.08789062 51.91796875 C27.87739588 52.26096356 27.87739588 52.26096356 25.62890625 51.13671875 C25.62890625 44.20671875 25.62890625 37.27671875 25.62890625 30.13671875 C20.67890625 30.13671875 15.72890625 30.13671875 10.62890625 30.13671875 C10.62890625 37.06671875 10.62890625 43.99671875 10.62890625 51.13671875 C7.64207218 52.63013578 4.88490851 52.26847053 1.56640625 52.26171875 C0.29667969 52.26429688 -0.97304688 52.266875 -2.28125 52.26953125 C-5.37109375 52.13671875 -5.37109375 52.13671875 -6.37109375 51.13671875 C-6.46956342 49.57672827 -6.49907993 48.01231331 -6.50048828 46.44921875 C-6.50364044 45.45148438 -6.5067926 44.45375 -6.51004028 43.42578125 C-6.50801605 42.34039062 -6.50599182 41.255 -6.50390625 40.13671875 C-6.50486298 39.03070313 -6.5058197 37.9246875 -6.50680542 36.78515625 C-6.50748742 34.44140567 -6.50563179 32.09765322 -6.50146484 29.75390625 C-6.49611689 26.15230087 -6.50140922 22.55082022 -6.5078125 18.94921875 C-6.50715172 16.67838514 -6.50587057 14.40755161 -6.50390625 12.13671875 C-6.50593048 11.05132812 -6.50795471 9.9659375 -6.51004028 8.84765625 C-6.50688812 7.84992188 -6.50373596 6.8521875 -6.50048828 5.82421875 C-6.49969269 4.94121094 -6.49889709 4.05820313 -6.49807739 3.1484375 C-6.23663867 -0.99336509 -3.52433352 0.00679062 0 0 Z " fill="#8D36E5" transform="translate(754.37109375,115.86328125)"/>
<path d="M0 0 C0.77915771 0.00202423 1.55831543 0.00404846 2.36108398 0.00613403 C3.15635498 0.00517731 3.95162598 0.00422058 4.77099609 0.00323486 C6.45564859 0.0025531 8.1403037 0.00440711 9.82495117 0.00857544 C12.41257595 0.01392378 15.00002714 0.00863034 17.58764648 0.00222778 C19.22045937 0.00288857 20.85327215 0.00416973 22.48608398 0.00613403 C23.2652417 0.0041098 24.04439941 0.00208557 24.84716797 0 C30.30863294 0.02399549 30.30863294 0.02399549 31.42358398 1.13894653 C31.51685114 2.70441701 31.5410398 4.27407426 31.53710938 5.84231567 C31.53703384 6.84327774 31.53695831 7.84423981 31.53688049 8.87553406 C31.53171921 9.96406174 31.52655792 11.05258942 31.52124023 12.17410278 C31.51982529 13.28249008 31.51841034 14.39087738 31.51695251 15.53285217 C31.51133432 19.08907722 31.49877873 22.64524036 31.48608398 26.20144653 C31.48107133 28.6057425 31.47650802 31.01003945 31.47241211 33.41433716 C31.46135898 39.32256157 31.44460315 45.23074963 31.42358398 51.13894653 C28.43674992 52.63236357 25.67958624 52.27069832 22.36108398 52.26394653 C21.09135742 52.26652466 19.82163086 52.26910278 18.51342773 52.27175903 C15.42358398 52.13894653 15.42358398 52.13894653 14.42358398 51.13894653 C14.33493191 48.25460833 14.30837103 45.39432495 14.32592773 42.51004028 C14.32734268 41.64580948 14.32875763 40.78157867 14.33021545 39.89115906 C14.3358316 37.11955361 14.34838679 34.34802773 14.36108398 31.57644653 C14.36609691 29.70209874 14.37066017 27.82774968 14.37475586 25.95339966 C14.38580627 21.3485511 14.40308169 16.74376232 14.42358398 12.13894653 C12.11358398 12.13894653 9.80358398 12.13894653 7.42358398 12.13894653 C7.32561523 13.07093872 7.22764648 14.00293091 7.12670898 14.96316528 C5.58921143 28.07165737 3.55275714 41.91301484 -6.82641602 51.13894653 C-10.95792311 52.64131275 -15.1774408 53.28915544 -19.57641602 53.13894653 C-20.89641602 52.47894653 -22.21641602 51.81894653 -23.57641602 51.13894653 C-23.57641602 47.83894653 -23.57641602 44.53894653 -23.57641602 41.13894653 C-21.5507616 40.63253293 -19.51880559 40.12981698 -17.45654297 39.80300903 C-15.47372958 39.29606306 -15.47372958 39.29606306 -14.40527344 37.59988403 C-11.24015226 30.35174805 -10.0857636 22.92038004 -8.88891602 15.13894653 C-8.47400857 12.51299002 -8.05123941 9.88845973 -7.62719727 7.26394653 C-7.44842041 6.11152466 -7.26964355 4.95910278 -7.08544922 3.77175903 C-6.19036754 -0.85776654 -4.34783735 0.01910265 0 0 Z " fill="#7F3AE0" transform="translate(651.576416015625,115.86105346679688)"/>
<path d="M0 0 C3.87885019 3.58699496 5.86682542 7.23212408 6.34599304 12.64137268 C6.40215104 14.88210748 6.39691058 17.1142322 6.3671875 19.35546875 C6.3643576 20.16823273 6.36152771 20.9809967 6.35861206 21.81838989 C6.34748119 24.396008 6.32239015 26.97326944 6.296875 29.55078125 C6.28683601 31.30598454 6.27771177 33.06119331 6.26953125 34.81640625 C6.24756515 39.10300051 6.21308478 43.38933055 6.171875 47.67578125 C3.28771617 49.11786066 0.75465972 48.76973012 -2.453125 48.73828125 C-3.64164063 48.72925781 -4.83015625 48.72023437 -6.0546875 48.7109375 C-6.96992187 48.69933594 -7.88515625 48.68773437 -8.828125 48.67578125 C-9.488125 47.35578125 -10.148125 46.03578125 -10.828125 44.67578125 C-11.715 45.33578125 -12.601875 45.99578125 -13.515625 46.67578125 C-18.91143645 49.75910208 -24.8122243 49.44228597 -30.828125 48.67578125 C-35.47802938 46.51117059 -37.54418207 44.19190636 -39.828125 39.67578125 C-40.64930978 34.17902186 -40.55342957 29.23797571 -38.203125 24.17578125 C-33.46497128 19.18825102 -28.993522 17.14780089 -22.265625 15.92578125 C-20.98558594 15.6834375 -19.70554687 15.44109375 -18.38671875 15.19140625 C-15.45350061 14.7663955 -12.78029635 14.56245413 -9.828125 14.67578125 C-10.94667086 10.94963972 -10.94667086 10.94963972 -13.828125 8.67578125 C-20.13546074 7.84658409 -24.94072168 9.18439687 -30.6640625 11.80078125 C-32.828125 12.67578125 -32.828125 12.67578125 -35.828125 12.67578125 C-35.828125 8.71578125 -35.828125 4.75578125 -35.828125 0.67578125 C-24.76347516 -4.50341655 -10.73501534 -7.7760047 0 0 Z M-23.828125 27.67578125 C-24.59529351 30.52656216 -24.59529351 30.52656216 -24.828125 33.67578125 C-23.33828113 36.07608526 -22.09167102 36.57868535 -19.453125 37.55078125 C-16.00922787 37.71477635 -14.54616749 36.73267827 -11.828125 34.67578125 C-9.3986734 31.03160385 -9.66632925 28.96336853 -9.828125 24.67578125 C-14.89045384 24.18587846 -19.15443346 25.96514905 -23.828125 27.67578125 Z " fill="#8638E5" transform="translate(730.828125,119.32421875)"/>
<path d="M0 0 C1.12535156 0.00580078 1.12535156 0.00580078 2.2734375 0.01171875 C3.02367187 0.00785156 3.77390625 0.00398438 4.546875 0 C10.14682697 0.01010822 10.14682697 0.01010822 11.2734375 1.13671875 C11.36773092 3.31477594 11.39086288 5.49593155 11.38696289 7.67602539 C11.38710892 8.35892136 11.38725494 9.04181732 11.3874054 9.7454071 C11.38670626 12.01259489 11.3789139 14.27970149 11.37109375 16.546875 C11.36922957 18.11486262 11.36780567 19.68285082 11.36680603 21.25083923 C11.36298084 25.38548378 11.35315056 29.52009341 11.34210205 33.65472412 C11.33188794 37.87072273 11.32730841 42.08672697 11.32226562 46.30273438 C11.31152829 54.58074522 11.29445186 62.85872765 11.2734375 71.13671875 C7.73959191 72.31466728 4.87066197 72.26936192 1.1484375 72.26171875 C-0.74261719 72.26558594 -0.74261719 72.26558594 -2.671875 72.26953125 C-5.7265625 72.13671875 -5.7265625 72.13671875 -6.7265625 71.13671875 C-6.82612528 68.96409195 -6.85455969 66.78818769 -6.85595703 64.61328125 C-6.85770935 63.93199158 -6.85946167 63.2507019 -6.86126709 62.54876709 C-6.86568492 60.28639208 -6.86274788 58.02409462 -6.859375 55.76171875 C-6.86004806 54.19612615 -6.8610181 52.63053365 -6.86227417 51.06494141 C-6.86375105 47.7796123 -6.86159691 44.49431033 -6.85693359 41.20898438 C-6.8512363 36.98851359 -6.85451536 32.76810639 -6.86050606 28.54763794 C-6.86411194 25.31355303 -6.86297296 22.0794833 -6.86037827 18.84539795 C-6.85970907 17.28879794 -6.86053716 15.73219657 -6.86285782 14.17559814 C-6.8653848 12.00374679 -6.86154315 9.83199979 -6.85595703 7.66015625 C-6.85516144 6.42185059 -6.85436584 5.18354492 -6.85354614 3.90771484 C-6.62699699 -1.03596768 -4.40968772 0.00795973 0 0 Z " fill="#5943E3" transform="translate(363.7265625,95.86328125)"/>
<path d="M0 0 C1.36560059 0.00303635 1.36560059 0.00303635 2.75878906 0.00613403 C3.68723633 0.00517731 4.61568359 0.00422058 5.57226562 0.00323486 C7.53938871 0.00255298 9.50651403 0.00440781 11.47363281 0.00857544 C14.49581932 0.01392358 17.51785721 0.00863071 20.54003906 0.00222778 C22.44628939 0.00288856 24.35253963 0.00416972 26.25878906 0.00613403 C27.16918945 0.0041098 28.07958984 0.00208557 29.01757812 0 C35.39383938 0.02399685 35.39383938 0.02399685 36.50878906 1.13894653 C36.58122959 3.15858852 36.59256094 5.18061777 36.57128906 7.20144653 C36.56226563 8.3061731 36.55324219 9.41089966 36.54394531 10.54910278 C36.53234375 11.40375122 36.52074219 12.25839966 36.50878906 13.13894653 C33.50878906 14.13894653 33.50878906 14.13894653 23.50878906 13.13894653 C23.50878906 25.67894653 23.50878906 38.21894653 23.50878906 51.13894653 C20.11486255 52.27025537 17.45544034 52.27186594 13.88378906 52.26394653 C12.71589844 52.26652466 11.54800781 52.26910278 10.34472656 52.27175903 C7.50878906 52.13894653 7.50878906 52.13894653 6.50878906 51.13894653 C6.42016914 48.32731274 6.39356551 45.54036398 6.41113281 42.72879028 C6.41254776 41.88675552 6.41396271 41.04472076 6.41542053 40.1771698 C6.42103643 37.47689319 6.43359158 34.77669826 6.44628906 32.07644653 C6.45130202 30.25027585 6.45586528 28.42410388 6.45996094 26.59793091 C6.47101102 22.11157111 6.48828627 17.62527269 6.50878906 13.13894653 C5.66574219 13.2227356 4.82269531 13.30652466 3.95410156 13.39285278 C2.85839844 13.49468872 1.76269531 13.59652466 0.63378906 13.70144653 C-0.45675781 13.8058606 -1.54730469 13.91027466 -2.67089844 14.01785278 C-5.49121094 14.13894653 -5.49121094 14.13894653 -7.49121094 13.13894653 C-7.51807647 11.15985256 -7.53754469 9.18065682 -7.55371094 7.20144653 C-7.5653125 6.0992981 -7.57691406 4.99714966 -7.58886719 3.86160278 C-7.40294473 -1.32191522 -4.49233776 0.01690676 0 0 Z " fill="#773EDE" transform="translate(592.4912109375,115.86105346679688)"/>
<path d="M0 0 C1.0374939 0.00303635 1.0374939 0.00303635 2.09594727 0.00613403 C2.80243408 0.00517731 3.5089209 0.00422058 4.23681641 0.00323486 C5.7331552 0.00255321 7.22949694 0.00440649 8.72583008 0.00857544 C11.02374884 0.01392396 13.32147213 0.00863003 15.61938477 0.00222778 C17.06990603 0.00288857 18.52042718 0.00416974 19.97094727 0.00613403 C20.66260986 0.0041098 21.35427246 0.00208557 22.06689453 0 C26.91849503 0.0239943 26.91849503 0.0239943 28.03344727 1.13894653 C28.17699843 5.14115306 28.0756113 9.13336337 28.03344727 13.13894653 C22.42344727 13.13894653 16.81344727 13.13894653 11.03344727 13.13894653 C11.03344727 25.67894653 11.03344727 38.21894653 11.03344727 51.13894653 C7.63952075 52.27025537 4.98009854 52.27186594 1.40844727 52.26394653 C0.24055664 52.26652466 -0.92733398 52.26910278 -2.13061523 52.27175903 C-4.96655273 52.13894653 -4.96655273 52.13894653 -5.96655273 51.13894653 C-6.0650224 49.57895605 -6.09453891 48.01454109 -6.09594727 46.45144653 C-6.09909943 45.45371216 -6.10225159 44.45597778 -6.10549927 43.42800903 C-6.10347504 42.34261841 -6.10145081 41.25722778 -6.09936523 40.13894653 C-6.10032196 39.03293091 -6.10127869 37.92691528 -6.1022644 36.78738403 C-6.1029464 34.44363346 -6.10109077 32.09988101 -6.09692383 29.75613403 C-6.09157587 26.15452866 -6.0968682 22.553048 -6.10327148 18.95144653 C-6.10261071 16.68061292 -6.10132955 14.40977939 -6.09936523 12.13894653 C-6.10138947 11.05355591 -6.1034137 9.96816528 -6.10549927 8.84988403 C-6.10234711 7.85214966 -6.09919495 6.85441528 -6.09594727 5.82644653 C-6.09515167 4.94343872 -6.09435608 4.06043091 -6.09353638 3.15066528 C-5.84108184 -0.84880676 -3.43971721 0.01701162 0 0 Z " fill="#723CE5" transform="translate(553.966552734375,115.86105346679688)"/>
<path d="M0 0 C3.87885019 3.58699496 5.86682542 7.23212408 6.34599304 12.64137268 C6.40215104 14.88210748 6.39691058 17.1142322 6.3671875 19.35546875 C6.3643576 20.16823273 6.36152771 20.9809967 6.35861206 21.81838989 C6.34748119 24.396008 6.32239015 26.97326944 6.296875 29.55078125 C6.28683601 31.30598454 6.27771177 33.06119331 6.26953125 34.81640625 C6.24756515 39.10300051 6.21308478 43.38933055 6.171875 47.67578125 C3.30553705 49.10895023 0.79951999 48.80778486 -2.390625 48.80078125 C-4.15599609 48.80464844 -4.15599609 48.80464844 -5.95703125 48.80859375 C-8.828125 48.67578125 -8.828125 48.67578125 -9.828125 47.67578125 C-9.86876332 46.0096101 -9.870846 44.3419003 -9.828125 42.67578125 C-8.838125 42.18078125 -8.838125 42.18078125 -7.828125 41.67578125 C-7.828125 42.99578125 -7.828125 44.31578125 -7.828125 45.67578125 C-3.868125 45.67578125 0.091875 45.67578125 4.171875 45.67578125 C4.07823855 40.47933896 3.97212189 35.28335699 3.85449219 30.08740234 C3.81623729 28.32022055 3.7813783 26.55296181 3.75 24.78564453 C3.70427348 22.24353562 3.64629211 19.70195477 3.5859375 17.16015625 C3.57438629 16.37147156 3.56283508 15.58278687 3.55093384 14.77020264 C3.44850416 10.9530487 3.319023 7.91533789 1.171875 4.67578125 C-0.75865964 4.74923247 -0.75865964 4.74923247 -2.828125 5.67578125 C-4.40833783 8.20597319 -4.40833783 8.20597319 -5.578125 11.23828125 C-6.00609375 12.25019531 -6.4340625 13.26210937 -6.875 14.3046875 C-7.18953125 15.08714844 -7.5040625 15.86960938 -7.828125 16.67578125 C-9.808125 16.67578125 -11.788125 16.67578125 -13.828125 16.67578125 C-13.828125 16.01578125 -13.828125 15.35578125 -13.828125 14.67578125 C-12.508125 14.67578125 -11.188125 14.67578125 -9.828125 14.67578125 C-10.94667086 10.94963972 -10.94667086 10.94963972 -13.828125 8.67578125 C-20.13546074 7.84658409 -24.94072168 9.18439687 -30.6640625 11.80078125 C-32.828125 12.67578125 -32.828125 12.67578125 -35.828125 12.67578125 C-35.828125 8.71578125 -35.828125 4.75578125 -35.828125 0.67578125 C-24.76347516 -4.50341655 -10.73501534 -7.7760047 0 0 Z " fill="#833CDB" transform="translate(730.828125,119.32421875)"/>
<path d="M0 0 C0 0.66 0 1.32 0 2 C-0.99 2 -1.98 2 -3 2 C-2.34 3.32 -1.68 4.64 -1 6 C-2.1875 7.5 -2.1875 7.5 -4 9 C-6.6875 9.1875 -6.6875 9.1875 -9 9 C-9 9.99 -9 10.98 -9 12 C-9 13.66666667 -9 15.33333333 -9 17 C-11.475 16.01 -11.475 16.01 -14 15 C-16.75950066 17.49245221 -18.62030099 19.20300991 -19 23 C-18.67 23.66 -18.34 24.32 -18 25 C-18.33 25.99 -18.66 26.98 -19 28 C-18.34 28.66 -17.68 29.32 -17 30 C-17.474375 30.33 -17.94875 30.66 -18.4375 31 C-21.8650298 35.38723814 -21.12998124 42.94501304 -21.15821838 48.30200195 C-21.16315636 48.9907906 -21.16809434 49.67957924 -21.17318195 50.38924026 C-21.18840734 52.67225173 -21.19687646 54.95523543 -21.20532227 57.23828125 C-21.21491259 58.88476297 -21.22492333 60.53124229 -21.23532104 62.17771912 C-21.26225114 66.6295673 -21.28332476 71.08142595 -21.30332303 75.53330994 C-21.32525635 80.19247321 -21.35260896 84.85160465 -21.37937927 89.51074219 C-21.42920715 98.32549257 -21.47418255 107.14026071 -21.51740164 115.9550457 C-21.56685889 125.99375533 -21.62174543 136.032433 -21.67708123 146.07111168 C-21.79074913 166.71404465 -21.89762101 187.35700816 -22 208 C-24.47291004 204.29063494 -24.25589582 202.42504714 -24.26742554 197.99365234 C-24.27195665 197.27606153 -24.27648776 196.55847071 -24.28115618 195.81913471 C-24.29384369 193.40800401 -24.29217699 190.99709795 -24.29052734 188.5859375 C-24.29651021 186.85951954 -24.3033152 185.13310425 -24.31088257 183.4066925 C-24.32858242 178.70998612 -24.33323985 174.01335257 -24.33451414 169.31661606 C-24.33593497 166.38022859 -24.34020344 163.44385967 -24.34550858 160.50747681 C-24.36402768 150.25676294 -24.37217754 140.00610114 -24.37060547 129.75537109 C-24.36940615 120.21297513 -24.3904624 110.67080613 -24.4220928 101.12846756 C-24.44829747 92.92956609 -24.45897089 84.7307385 -24.45769465 76.5317955 C-24.4571859 71.63812036 -24.4628198 66.74464649 -24.48405075 61.85101318 C-24.50350171 57.24133629 -24.50351094 52.63205105 -24.48901749 48.02235985 C-24.4869362 46.33701184 -24.49158942 44.6516389 -24.5037384 42.96633339 C-24.59125892 29.97622036 -23.15711249 18.90975187 -14 9 C-4.78656126 0 -4.78656126 0 0 0 Z " fill="#6760D2" transform="translate(25,7)"/>
<path d="M0 0 C1.39456452 0.00667256 2.78911118 0.01863093 4.18359375 0.03515625 C4.89451172 0.03966797 5.60542969 0.04417969 6.33789062 0.04882812 C8.09899388 0.06064761 9.86005411 0.07858362 11.62109375 0.09765625 C11.62109375 1.08765625 11.62109375 2.07765625 11.62109375 3.09765625 C10.93402344 3.23042969 10.24695313 3.36320312 9.5390625 3.5 C8.18748047 3.76490234 8.18748047 3.76490234 6.80859375 4.03515625 C5.46861328 4.29619141 5.46861328 4.29619141 4.1015625 4.5625 C1.50712204 5.07506778 1.50712204 5.07506778 -1.37890625 6.09765625 C-1.37890625 26.55765625 -1.37890625 47.01765625 -1.37890625 68.09765625 C2.91109375 68.42765625 7.20109375 68.75765625 11.62109375 69.09765625 C11.61062012 67.14432373 11.60014648 65.19099121 11.58935547 63.1784668 C11.55711988 56.7284076 11.53413082 50.27836746 11.51746941 43.82824993 C11.50702718 39.91711113 11.49286003 36.00605939 11.47021484 32.0949707 C11.44850202 28.32134456 11.43652843 24.54780221 11.43133926 20.77411842 C11.42764069 19.33359266 11.42041839 17.89307154 11.40963364 16.45258141 C11.39514028 14.43677611 11.39427701 12.42088669 11.39404297 10.4050293 C11.38960175 9.25697311 11.38516052 8.10891693 11.38058472 6.92607117 C11.62109375 4.09765625 11.62109375 4.09765625 13.62109375 1.09765625 C13.62109375 24.19765625 13.62109375 47.29765625 13.62109375 71.09765625 C10.08724816 72.27560478 7.21831822 72.23029942 3.49609375 72.22265625 C1.60503906 72.22652344 1.60503906 72.22652344 -0.32421875 72.23046875 C-3.37890625 72.09765625 -3.37890625 72.09765625 -4.37890625 71.09765625 C-4.47846903 68.92502945 -4.50690344 66.74912519 -4.50830078 64.57421875 C-4.5100531 63.89292908 -4.51180542 63.2116394 -4.51361084 62.50970459 C-4.51802867 60.24732958 -4.51509163 57.98503212 -4.51171875 55.72265625 C-4.51239181 54.15706365 -4.51336185 52.59147115 -4.51461792 51.02587891 C-4.5160948 47.7405498 -4.51394066 44.45524783 -4.50927734 41.16992188 C-4.50358005 36.94945109 -4.50685911 32.72904389 -4.51284981 28.50857544 C-4.51645569 25.27449053 -4.51531671 22.0404208 -4.51272202 18.80633545 C-4.51205282 17.24973544 -4.51288091 15.69313407 -4.51520157 14.13653564 C-4.51772855 11.96468429 -4.5138869 9.79293729 -4.50830078 7.62109375 C-4.50750519 6.38278809 -4.50670959 5.14448242 -4.50588989 3.86865234 C-4.31980833 -0.1919594 -4.16249225 0.12030324 0 0 Z " fill="#5D51B3" transform="translate(361.37890625,95.90234375)"/>
<path d="M0 0 C0.66 0.33 1.32 0.66 2 1 C1.67 1.33 1.34 1.66 1 2 C0.87802192 3.38050858 0.82231101 4.76697647 0.79467773 6.15258789 C0.77473251 7.03342545 0.75478729 7.914263 0.73423767 8.8217926 C0.71752518 9.77907761 0.70081268 10.73636261 0.68359375 11.72265625 C0.66281265 12.69786728 0.64203156 13.67307831 0.62062073 14.67784119 C0.55501588 17.8059863 0.49618972 20.93421822 0.4375 24.0625 C0.39432517 26.1777435 0.35071123 28.29297809 0.30664062 30.40820312 C0.19932345 35.60537587 0.0975778 40.80263577 0 46 C0.66 46.33 1.32 46.66 2 47 C2 47.66 2 48.32 2 49 C5.96 49 9.92 49 14 49 C13.99476318 47.88439697 13.98952637 46.76879395 13.98413086 45.61938477 C13.96608225 41.49520667 13.95456851 37.37103209 13.94506836 33.24682617 C13.94002782 31.45905979 13.93319546 29.67129755 13.92456055 27.88354492 C13.9124827 25.31948832 13.90676906 22.75548603 13.90234375 20.19140625 C13.89718246 19.3872377 13.89202118 18.58306915 13.88670349 17.75453186 C13.88650785 15.83598285 13.93798017 13.91754632 14 12 C15 11 15 11 18.59765625 10.90234375 C20.08596867 10.9090178 21.57426432 10.92097817 23.0625 10.9375 C24.20041992 10.94426758 24.20041992 10.94426758 25.36132812 10.95117188 C27.24091871 10.9629932 29.12046899 10.98092922 31 11 C30.67 7.37 30.34 3.74 30 0 C31.485 0.495 31.485 0.495 33 1 C33 4.96 33 8.92 33 13 C27.39 13 21.78 13 16 13 C16 25.54 16 38.08 16 51 C12.60607349 52.13130884 9.94665128 52.1329194 6.375 52.125 C5.20710937 52.12757813 4.03921875 52.13015625 2.8359375 52.1328125 C0 52 0 52 -1 51 C-1.09846967 49.44000952 -1.12798618 47.87559456 -1.12939453 46.3125 C-1.13254669 45.31476563 -1.13569885 44.31703125 -1.13894653 43.2890625 C-1.1369223 42.20367187 -1.13489807 41.11828125 -1.1328125 40 C-1.13376923 38.89398438 -1.13472595 37.78796875 -1.13571167 36.6484375 C-1.13639367 34.30468692 -1.13453804 31.96093447 -1.13037109 29.6171875 C-1.12502314 26.01558212 -1.13031547 22.41410147 -1.13671875 18.8125 C-1.13605797 16.54166639 -1.13477682 14.27083286 -1.1328125 12 C-1.13483673 10.91460937 -1.13686096 9.82921875 -1.13894653 8.7109375 C-1.13579437 7.71320313 -1.13264221 6.71546875 -1.12939453 5.6875 C-1.12859894 4.80449219 -1.12780334 3.92148438 -1.12698364 3.01171875 C-1 1 -1 1 0 0 Z " fill="#6F4BBD" transform="translate(549,116)"/>
<path d="M0 0 C-0.33 0.66 -0.66 1.32 -1 2 C-0.34 2 0.32 2 1 2 C0.34 4.31 -0.32 6.62 -1 9 C-0.34 9 0.32 9 1 9 C0.67 10.65 0.34 12.3 0 14 C-0.33 13.01 -0.66 12.02 -1 11 C-1.99 11.66 -2.98 12.32 -4 13 C-4 13.99 -4 14.98 -4 16 C-8.30902834 18.21980248 -11.31090292 18.08209933 -16 17 C-16.33 16.34 -16.66 15.68 -17 15 C-16.34 15 -15.68 15 -15 15 C-14.731875 14.05125 -14.46375 13.1025 -14.1875 12.125 C-13 9 -13 9 -10 7 C-9.67 6.01 -9.34 5.02 -9 4 C-8.34 4 -7.68 4 -7 4 C-6.896875 3.360625 -6.79375 2.72125 -6.6875 2.0625 C-6.460625 1.381875 -6.23375 0.70125 -6 0 C-3 -1 -3 -1 0 0 Z " fill="#7D39E7" transform="translate(647,149)"/>
<path d="M0 0 C1.32 0 2.64 0 4 0 C3.65825889 7.86004548 -0.0319484 14.23431555 -5.75 19.5625 C-10.07008087 21.473305 -14.2707129 22.23412312 -19 22 C-20.32 21.34 -21.64 20.68 -23 20 C-23 16.7 -23 13.4 -23 10 C-20.96547367 9.49136842 -18.92906025 8.98539476 -16.875 8.5625 C-14.77917672 8.09524327 -14.77917672 8.09524327 -13 6 C-13.375 7.9375 -13.375 7.9375 -14 10 C-14.99 10.495 -14.99 10.495 -16 11 C-17.11634152 12.65051288 -17.11634152 12.65051288 -18.125 14.5625 C-19.053125 16.2640625 -19.053125 16.2640625 -20 18 C-15.6835078 18.76173392 -12.25566547 19.16063604 -8 18 C-8.33 16.68 -8.66 15.36 -9 14 C-7.0625 13.4375 -7.0625 13.4375 -5 13 C-4.67 13.33 -4.34 13.66 -4 14 C-3.67 13.01 -3.34 12.02 -3 11 C-3.66 11 -4.32 11 -5 11 C-4.75 8.625 -4.75 8.625 -4 6 C-1.9375 4.6875 -1.9375 4.6875 0 4 C0 2.68 0 1.36 0 0 Z " fill="#7840D0" transform="translate(651,147)"/>
<path d="M0 0 C0.66 0.33 1.32 0.66 2 1 C2 17.5 2 34 2 51 C-1.07353898 52.02451299 -2.81441086 52.06374438 -6 51.8125 C-7.299375 51.72935547 -7.299375 51.72935547 -8.625 51.64453125 C-11 51 -11 51 -12.80078125 49.21484375 C-14.70446695 45.69891609 -14.1973288 42.94657599 -14 39 C-11.87491756 42.18762365 -11.4979837 44.26512223 -11 48 C-9.515 47.505 -9.515 47.505 -8 47 C-6.68 47 -5.36 47 -4 47 C-3.01 46.505 -3.01 46.505 -2 46 C-1.34 46.33 -0.68 46.66 0 47 C0 31.49 0 15.98 0 0 Z " fill="#6B49BF" transform="translate(535,116)"/>
<path d="M0 0 C2.64 0.33 5.28 0.66 8 1 C8 2.65 8 4.3 8 6 C7.01 6.33 6.02 6.66 5 7 C4.26676204 9.01508358 4.26676204 9.01508358 4 11 C4.66 11 5.32 11 6 11 C6 11.99 6 12.98 6 14 C4.35 14 2.7 14 1 14 C1 15.65 1 17.3 1 19 C0.34 19 -0.32 19 -1 19 C-0.67 20.65 -0.34 22.3 0 24 C4.62609198 24.3227506 7.28026121 23.84450614 11 21 C11 20.34 11 19.68 11 19 C12.32 18.34 13.64 17.68 15 17 C14.463107 21.56359054 13.00369548 24.51952746 10 28 C6.98280911 28.51829046 4.85294351 28.67047262 1.875 28.5 C1.14667969 28.4896875 0.41835938 28.479375 -0.33203125 28.46875 C-5.68970238 28.31029762 -5.68970238 28.31029762 -8 26 C-6.61457508 23.43137994 -5.21728761 20.87050471 -3.8125 18.3125 C-3.42513672 17.59126953 -3.03777344 16.87003906 -2.63867188 16.12695312 C-0.20497202 11.72215752 2.25628554 8.37133789 6 5 C5.01 4.360625 4.02 3.72125 3 3.0625 C2.01 2.381875 1.02 1.70125 0 1 C0 0.67 0 0.34 0 0 Z " fill="#6544CB" transform="translate(494,140)"/>
<path d="M0 0 C8.13448006 -0.35887412 8.13448006 -0.35887412 11.5625 1.0625 C13.79083695 4.06591067 13.45264211 6.37886313 13 10 C11.796875 11.70703125 11.796875 11.70703125 10 13 C7.51953125 13.29296875 7.51953125 13.29296875 4.8125 13.1875 C3.224375 13.125625 1.63625 13.06375 0 13 C0 8.71 0 4.42 0 0 Z " fill="#7962ED" transform="translate(127,130)"/>
<path d="M0 0 C0.66 0.33 1.32 0.66 2 1 C2 16.84 2 32.68 2 49 C4.475 48.505 4.475 48.505 7 48 C9.31 48.33 11.62 48.66 14 49 C14.495 40.09 14.495 40.09 15 31 C15.33 31 15.66 31 16 31 C16 37.6 16 44.2 16 51 C13.01316593 52.49341703 10.25600226 52.13175178 6.9375 52.125 C5.66777344 52.12757813 4.39804687 52.13015625 3.08984375 52.1328125 C0 52 0 52 -1 51 C-1.09846967 49.44000952 -1.12798618 47.87559456 -1.12939453 46.3125 C-1.13254669 45.31476563 -1.13569885 44.31703125 -1.13894653 43.2890625 C-1.1369223 42.20367187 -1.13489807 41.11828125 -1.1328125 40 C-1.13376923 38.89398438 -1.13472595 37.78796875 -1.13571167 36.6484375 C-1.13639367 34.30468692 -1.13453804 31.96093447 -1.13037109 29.6171875 C-1.12502314 26.01558212 -1.13031547 22.41410147 -1.13671875 18.8125 C-1.13605797 16.54166639 -1.13477682 14.27083286 -1.1328125 12 C-1.13483673 10.91460937 -1.13686096 9.82921875 -1.13894653 8.7109375 C-1.13579437 7.71320313 -1.13264221 6.71546875 -1.12939453 5.6875 C-1.12859894 4.80449219 -1.12780334 3.92148438 -1.12698364 3.01171875 C-1 1 -1 1 0 0 Z " fill="#8145C8" transform="translate(749,116)"/>
<path d="M0 0 C2.3821875 0.0928125 2.3821875 0.0928125 4.8125 0.1875 C4.8125 4.4775 4.8125 8.7675 4.8125 13.1875 C-3.42352484 13.67197205 -3.42352484 13.67197205 -6.75 11.5625 C-8.60299639 8.50102771 -8.7119772 6.7089898 -8.1875 3.1875 C-5.83004881 -0.08843867 -3.90127341 -0.15199767 0 0 Z " fill="#7967E8" transform="translate(109.1875,103.8125)"/>
<path d="M0 0 C0.66 0.33 1.32 0.66 2 1 C1.67 4.3 1.34 7.6 1 11 C5.29 11 9.58 11 14 11 C14 23.87 14 36.74 14 50 C18.95 50 23.9 50 29 50 C29 38.45 29 26.9 29 15 C29.33 15 29.66 15 30 15 C30 26.88 30 38.76 30 51 C26.60607349 52.13130884 23.94665128 52.1329194 20.375 52.125 C19.20710937 52.12757813 18.03921875 52.13015625 16.8359375 52.1328125 C14 52 14 52 13 51 C12.91138008 48.1883662 12.88477645 45.40141745 12.90234375 42.58984375 C12.9037587 41.74780899 12.90517365 40.90577423 12.90663147 40.03822327 C12.91224737 37.33794665 12.92480252 34.63775172 12.9375 31.9375 C12.94251295 30.11132932 12.94707621 28.28515734 12.95117188 26.45898438 C12.96222196 21.97262458 12.97949721 17.48632616 13 13 C12.15695312 13.08378906 11.31390625 13.16757813 10.4453125 13.25390625 C9.34960938 13.35574219 8.25390625 13.45757812 7.125 13.5625 C6.03445313 13.66691406 4.94390625 13.77132812 3.8203125 13.87890625 C1 14 1 14 -1 13 C-1.02686553 11.02090602 -1.04633375 9.04171029 -1.0625 7.0625 C-1.07410156 5.96035156 -1.08570313 4.85820313 -1.09765625 3.72265625 C-1 1 -1 1 0 0 Z " fill="#704DB2" transform="translate(586,116)"/>
<path d="M0 0 C0.350625 0.61875 0.70125 1.2375 1.0625 1.875 C3.68887702 4.75554253 6.26627537 5.15462838 10 6 C9.01 6.495 9.01 6.495 8 7 C8 8.98 8 10.96 8 13 C8.33 12.01 8.66 11.02 9 10 C9.66 10 10.32 10 11 10 C10.67 11.32 10.34 12.64 10 14 C11.32 14 12.64 14 14 14 C14.04898438 15.10859375 14.09796875 16.2171875 14.1484375 17.359375 C14.22349215 18.82294065 14.29903881 20.28648112 14.375 21.75 C14.4059375 22.47960937 14.436875 23.20921875 14.46875 23.9609375 C14.6748494 27.73942656 14.91512843 30.77946668 17 34 C15.68 34 14.36 34 13 34 C13 27.73 13 21.46 13 15 C10.69 15.66 8.38 16.32 6 17 C4.61141128 19.42885788 4.61141128 19.42885788 4 22 C3.34 22.66 2.68 23.32 2 24 C2 22.35 2 20.7 2 19 C2.66 19 3.32 19 4 19 C3.25184487 13.45171755 3.25184487 13.45171755 -0.125 9.5 C-0.74375 9.335 -1.3625 9.17 -2 9 C-2 7.68 -2 6.36 -2 5 C-1.34 5 -0.68 5 0 5 C0 3.35 0 1.7 0 0 Z " fill="#6741D8" transform="translate(507,133)"/>
<path d="M0 0 C5.96401865 0.12425039 8.84795908 2.04252627 13.30078125 5.91796875 C17.37360179 10.90834426 17.27646469 16.56049564 17.1953125 22.6796875 C17.1924826 23.49245148 17.18965271 24.30521545 17.18673706 25.14260864 C17.17560619 27.72022675 17.15051515 30.29748819 17.125 32.875 C17.11496101 34.63020329 17.10583677 36.38541206 17.09765625 38.140625 C17.07569015 42.42721926 17.04120978 46.7135493 17 51 C14.13366205 52.43316898 11.62764499 52.13200361 8.4375 52.125 C6.67212891 52.12886719 6.67212891 52.12886719 4.87109375 52.1328125 C2 52 2 52 1 51 C0.95936168 49.33382885 0.957279 47.66611905 1 46 C1.99 45.505 1.99 45.505 3 45 C3 46.32 3 47.64 3 49 C6.96 49 10.92 49 15 49 C14.93101715 43.82171314 14.84299943 38.6442256 14.73754883 33.46655273 C14.70435346 31.70622645 14.67630476 29.94579512 14.65356445 28.18530273 C14.6199188 25.65042475 14.5675994 23.11650477 14.51171875 20.58203125 C14.50532883 19.79850784 14.4989389 19.01498444 14.49235535 18.2077179 C14.37035083 13.64420279 13.81102864 10.64064701 11 7 C9.10636087 5.4477216 9.10636087 5.4477216 7 4.3125 C6.319375 3.91675781 5.63875 3.52101563 4.9375 3.11328125 C4.298125 2.74589844 3.65875 2.37851563 3 2 C2.01 1.34 1.02 0.68 0 0 Z " fill="#8148BF" transform="translate(720,116)"/>
<path d="M0 0 C0.16782208 6.95988933 0.32778626 13.91992681 0.48217773 20.88012695 C0.53568644 23.24996064 0.59102231 25.61975379 0.64819336 27.98950195 C0.72985758 31.38744357 0.80503992 34.78547482 0.87890625 38.18359375 C0.90594131 39.25024765 0.93297638 40.31690155 0.96083069 41.4158783 C0.98092697 42.39681961 1.00102325 43.37776093 1.02172852 44.38842773 C1.04171402 45.25668686 1.06169952 46.12494598 1.08229065 47.01951599 C1 49 1 49 0 50 C-2.18639453 50.07258946 -4.37500389 50.08373783 -6.5625 50.0625 C-8.35880859 50.04896484 -8.35880859 50.04896484 -10.19140625 50.03515625 C-11.11824219 50.02355469 -12.04507813 50.01195312 -13 50 C-13 49.34 -13 48.68 -13 48 C-9.37 48 -5.74 48 -2 48 C-2 32.82 -2 17.64 -2 2 C-3.98 2 -5.96 2 -8 2 C-7.67 1.34 -7.34 0.68 -7 0 C-2.52459016 -1.26229508 -2.52459016 -1.26229508 0 0 Z " fill="#8B4BC0" transform="translate(797,117)"/>
<path d="M0 0 C1.5631897 0.00785522 1.5631897 0.00785522 3.15795898 0.01586914 C4.28266602 0.0190918 5.40737305 0.02231445 6.56616211 0.02563477 C7.75016602 0.03401367 8.93416992 0.04239258 10.15405273 0.05102539 C11.34192383 0.05553711 12.52979492 0.06004883 13.75366211 0.06469727 C16.69967499 0.07652864 19.64558954 0.09301252 22.59155273 0.11352539 C22.59155273 0.44352539 22.59155273 0.77352539 22.59155273 1.11352539 C14.67155273 2.10352539 6.75155273 3.09352539 -1.40844727 4.11352539 C-1.40844727 7.74352539 -1.40844727 11.37352539 -1.40844727 15.11352539 C-2.06844727 15.11352539 -2.72844727 15.11352539 -3.40844727 15.11352539 C-3.40844727 18.74352539 -3.40844727 22.37352539 -3.40844727 26.11352539 C-4.06844727 26.11352539 -4.72844727 26.11352539 -5.40844727 26.11352539 C-5.40844727 27.43352539 -5.40844727 28.75352539 -5.40844727 30.11352539 C-4.74844727 30.11352539 -4.08844727 30.11352539 -3.40844727 30.11352539 C-4.06844727 31.43352539 -4.72844727 32.75352539 -5.40844727 34.11352539 C-6.06844727 33.78352539 -6.72844727 33.45352539 -7.40844727 33.11352539 C-7.73844727 34.43352539 -8.06844727 35.75352539 -8.40844727 37.11352539 C-9.06844727 37.11352539 -9.72844727 37.11352539 -10.40844727 37.11352539 C-10.15450195 36.10676758 -9.90055664 35.10000977 -9.63891602 34.06274414 C-7.43478187 25.12154665 -5.66673314 16.21481623 -4.36035156 7.09667969 C-3.35058978 0.15793454 -3.35058978 0.15793454 0 0 Z " fill="#7747C6" transform="translate(648.408447265625,115.886474609375)"/>
<path d="M0 0 C0.33 0.99 0.66 1.98 1 3 C-2.06718925 5.6915517 -3.92165507 6.3672868 -7.984375 6.29296875 C-8.91894531 6.28330078 -9.85351562 6.27363281 -10.81640625 6.26367188 C-11.78449219 6.23853516 -12.75257813 6.21339844 -13.75 6.1875 C-14.73355469 6.17396484 -15.71710938 6.16042969 -16.73046875 6.14648438 C-19.15388077 6.11119197 -21.57701049 6.05738659 -24 6 C-24 9.3 -24 12.6 -24 16 C-23.26394531 15.97679688 -22.52789062 15.95359375 -21.76953125 15.9296875 C-20.79371094 15.91164063 -19.81789062 15.89359375 -18.8125 15.875 C-17.84957031 15.85179688 -16.88664063 15.82859375 -15.89453125 15.8046875 C-12.83503079 16.01113153 -10.72022071 16.60102935 -8 18 C-7.1875 20.125 -7.1875 20.125 -7 22 C-7.9075 21.525625 -8.815 21.05125 -9.75 20.5625 C-14.9625341 18.28403149 -20.38037266 18.3157094 -26 18 C-26 13.38 -26 8.76 -26 4 C-24.29070312 3.96261719 -22.58140625 3.92523438 -20.8203125 3.88671875 C-18.58851903 3.82107777 -16.35674919 3.7546298 -14.125 3.6875 C-12.99707031 3.66494141 -11.86914062 3.64238281 -10.70703125 3.61914062 C-9.63066406 3.58369141 -8.55429688 3.54824219 -7.4453125 3.51171875 C-5.95281982 3.47244263 -5.95281982 3.47244263 -4.43017578 3.43237305 C-3.22723877 3.21834839 -3.22723877 3.21834839 -2 3 C-1.34 2.01 -0.68 1.02 0 0 Z " fill="#8C7CE0" transform="translate(153,99)"/>
<path d="M0 0 C3.63 0 7.26 0 11 0 C11.02505615 0.98919434 11.0501123 1.97838867 11.07592773 2.99755859 C11.16997787 6.66159404 11.27020429 10.32543885 11.37231445 13.98925781 C11.41567241 15.57612657 11.45734687 17.16304224 11.49731445 18.75 C11.55499632 21.02878979 11.61869638 23.30734322 11.68359375 25.5859375 C11.70030624 26.29744965 11.71701874 27.00896179 11.73423767 27.74203491 C11.79721937 31.49660817 11.79721937 31.49660817 13 35 C11.515 35.495 11.515 35.495 10 36 C10 24.78 10 13.56 10 2 C7.36 2 4.72 2 2 2 C1.87882813 3.03640625 1.75765625 4.0728125 1.6328125 5.140625 C1.46392819 6.51046438 1.29463589 7.88025349 1.125 9.25 C1.04636719 9.93191406 0.96773437 10.61382812 0.88671875 11.31640625 C0.43354167 14.90696311 -0.09385738 17.892507 -2 21 C-2.28454579 13.71246625 -1.46555517 7.14458144 0 0 Z " fill="#7D3CDB" transform="translate(657,126)"/>
<path d="M0 0 C-0.33 0.99 -0.66 1.98 -1 3 C-2.32 3 -3.64 3 -5 3 C-4.67 3.66 -4.34 4.32 -4 5 C-2.68 5 -1.36 5 0 5 C0.33 4.34 0.66 3.68 1 3 C3.06640625 2.5859375 3.06640625 2.5859375 5.5625 2.375 C6.38878906 2.30023438 7.21507812 2.22546875 8.06640625 2.1484375 C9.02353516 2.07496094 9.02353516 2.07496094 10 2 C10 3.32 10 4.64 10 6 C7.03 6 4.06 6 1 6 C1 6.66 1 7.32 1 8 C-1.31 8 -3.62 8 -6 8 C-6 8.66 -6 9.32 -6 10 C-6.99 10 -7.98 10 -9 10 C-9.1953125 3.9453125 -9.1953125 3.9453125 -9 2 C-6.32750728 -0.67249272 -3.5165484 -1.7582742 0 0 Z " fill="#8537E7" transform="translate(707,119)"/>
<path d="M0 0 C1.051875 0.01353516 2.10375 0.02707031 3.1875 0.04101562 C5.75055954 0.07596644 8.31248913 0.12502318 10.875 0.1875 C10.875 0.5175 10.875 0.8475 10.875 1.1875 C0.48 1.6825 0.48 1.6825 -10.125 2.1875 C-10.125 2.5175 -10.125 2.8475 -10.125 3.1875 C-11.919375 3.31125 -11.919375 3.31125 -13.75 3.4375 C-18.03392646 3.97013739 -20.76696482 5.4027879 -24.125 8.1875 C-25.26577657 11.60982972 -25.22315117 14.27423217 -25.1875 17.875 C-25.17396484 19.64423828 -25.17396484 19.64423828 -25.16015625 21.44921875 C-25.14855469 22.35285156 -25.13695312 23.25648438 -25.125 24.1875 C-27.29993941 22.44754847 -28.06010776 21.5034095 -28.62890625 18.734375 C-28.72960889 13.92750223 -28.72441251 10.13091375 -25.75 6.1875 C-18.69719975 -0.3868199 -9.10909387 -0.22598897 0 0 Z " fill="#6652B1" transform="translate(519.125,115.8125)"/>
<path d="M0 0 C2.25267326 3.37900989 3.50746621 6.82961019 4.85546875 10.625 C5.12136307 11.36830566 5.38725739 12.11161133 5.66120911 12.87744141 C6.22062943 14.44679607 6.77776217 16.01696781 7.33276367 17.58789062 C8.18553066 19.99444242 9.05238972 22.39561286 9.91992188 24.796875 C10.46181019 26.322607 11.00285475 27.84863899 11.54296875 29.375 C11.80434128 30.09381348 12.06571381 30.81262695 12.33500671 31.55322266 C14.11437062 36.65688813 14.11437062 36.65688813 13 40 C10.69 39.67 8.38 39.34 6 39 C6.474375 38.566875 6.94875 38.13375 7.4375 37.6875 C9.23686957 35.97690387 9.23686957 35.97690387 10 33 C9.67 32.67 9.34 32.34 9 32 C8.95919217 30.00041636 8.95745644 27.99954746 9 26 C8.34 26 7.68 26 7 26 C5.19671766 20.69834991 3.5253443 15.38954987 2 10 C1.443125 8.4221875 1.443125 8.4221875 0.875 6.8125 C0 4 0 4 0 0 Z " fill="#5347B8" transform="translate(336,128)"/>
<path d="M0 0 C1.67542976 0.28604898 3.34385343 0.61781233 5 1 C4.67 1.99 4.34 2.98 4 4 C3.360625 4.12375 2.72125 4.2475 2.0625 4.375 C-0.22365713 4.8099158 -0.22365713 4.8099158 -1.25 7.1875 C-2.06408712 10.24032669 -2.14631766 12.85417035 -2 16 C-2.66 16 -3.32 16 -4 16 C-4.75427297 20.97906259 -4.75427297 20.97906259 -5 26 C-5.99 26 -6.98 26 -8 26 C-8.66 27.32 -9.32 28.64 -10 30 C-11 28 -11 28 -10.21142578 25.31030273 C-9.7936084 24.19598877 -9.37579102 23.0816748 -8.9453125 21.93359375 C-8.49542969 20.72638672 -8.04554688 19.51917969 -7.58203125 18.27539062 C-7.34307129 17.64608643 -7.10411133 17.01678223 -6.85791016 16.3684082 C-6.12765708 14.44450028 -5.40858912 12.51670398 -4.69140625 10.58789062 C-1.1504892 1.1504892 -1.1504892 1.1504892 0 0 Z " fill="#534BC3" transform="translate(306,96)"/>
<path d="M0 0 C-1.06541016 0.30744141 -1.06541016 0.30744141 -2.15234375 0.62109375 C-3.53099609 1.02521484 -3.53099609 1.02521484 -4.9375 1.4375 C-6.31228516 1.83775391 -6.31228516 1.83775391 -7.71484375 2.24609375 C-9.9402493 2.79026051 -9.9402493 2.79026051 -11 4 C-11.23075082 5.34747084 -11.41153063 6.70377565 -11.5625 8.0625 C-11.7790625 10.0115625 -11.7790625 10.0115625 -12 12 C-11.01 12 -10.02 12 -9 12 C-9 11.34 -9 10.68 -9 10 C-6.69 10 -4.38 10 -2 10 C-3.33333333 10.66666667 -4.66666667 11.33333333 -6 12 C-7.010625 12.53625 -8.02125 13.0725 -9.0625 13.625 C-12 15 -12 15 -15 15 C-15 11.04 -15 7.08 -15 3 C-5.07911868 -1.38808212 -5.07911868 -1.38808212 0 0 Z " fill="#7B4BBE" transform="translate(710,117)"/>
<path d="M0 0 C0.33 0.99 0.66 1.98 1 3 C0.01 3.66 -0.98 4.32 -2 5 C-3.20482939 6.7179646 -3.20482939 6.7179646 -4.1875 8.625 C-4.785625 9.73875 -5.38375 10.8525 -6 12 C-3.70370006 13.14814997 -1.92301914 13.30769809 0.625 13.5625 C1.44226563 13.64628906 2.25953125 13.73007813 3.1015625 13.81640625 C3.72804688 13.87699219 4.35453125 13.93757812 5 14 C5 14.33 5 14.66 5 15 C3.41870971 15.22331199 1.83478911 15.42804644 0.25 15.625 C-0.63171875 15.74101562 -1.5134375 15.85703125 -2.421875 15.9765625 C-5 16 -5 16 -9 14 C-9 10.7 -9 7.4 -9 4 C-6.94579182 3.48644796 -4.88881028 2.97776206 -2.8125 2.5625 C-2.214375 2.376875 -1.61625 2.19125 -1 2 C-0.67 1.34 -0.34 0.68 0 0 Z " fill="#7445C7" transform="translate(637,153)"/>
<path d="M0 0 C0.99 0 1.98 0 3 0 C3.33 1.98 3.66 3.96 4 6 C3.34 5.01 2.68 4.02 2 3 C-0.31 9.93 -2.62 16.86 -5 24 C-5.66 24 -6.32 24 -7 24 C-6.67 22.35 -6.34 20.7 -6 19 C-6.99 18.67 -7.98 18.34 -9 18 C-7.68 17.34 -6.36 16.68 -5 16 C-5.04125 14.88625 -5.0825 13.7725 -5.125 12.625 C-5 9 -5 9 -3 7 C-1.96157435 4.68351201 -0.9578025 2.35096976 0 0 Z " fill="#5248C7" transform="translate(313,113)"/>
<path d="M0 0 C3.55234558 0.60897353 6.7331874 1.45733849 10 3 C10.33 3.66 10.66 4.32 11 5 C11.99 5.33 12.98 5.66 14 6 C15.02028865 7.31787285 16.01971384 8.65210653 17 10 C17.99 10.66 18.98 11.32 20 12 C20.495 12.680625 20.99 13.36125 21.5 14.0625 C22.93521921 16.28760652 22.93521921 16.28760652 26 17 C26.33 18.98 26.66 20.96 27 23 C26.34 22.34 25.68 21.68 25 21 C24.53464844 20.54109375 24.06929687 20.0821875 23.58984375 19.609375 C22.49325523 18.49931488 21.42412634 17.36168221 20.37890625 16.203125 C15.15178353 10.58256293 9.27592921 6.76145433 2.78125 2.78515625 C1.8634375 2.19605469 0.945625 1.60695312 0 1 C0 0.67 0 0.34 0 0 Z " fill="#7E6CDC" transform="translate(154,58)"/>
<path d="M0 0 C8.58 0 17.16 0 26 0 C26 0.33 26 0.66 26 1 C18.08 1 10.16 1 2 1 C1.01 4.63 0.02 8.26 -1 12 C-1.66 13.65 -2.32 15.3 -3 17 C-4.125 15.5 -4.125 15.5 -5 13 C-4.57598348 10.2226918 -3.81108065 7.70360217 -3 5 C-2.01 5 -1.02 5 0 5 C0 3.35 0 1.7 0 0 Z " fill="#544BB6" transform="translate(301,151)"/>
<path d="M0 0 C0.7425 0.309375 1.485 0.61875 2.25 0.9375 C7.48999118 2.42216417 12.56668934 2.63777929 18 3 C18 7.29 18 11.58 18 16 C10.74 16 3.48 16 -4 16 C-4 15.67 -4 15.34 -4 15 C2.93 15 9.86 15 17 15 C16.505 10.05 16.505 10.05 16 5 C11.05 4.67 6.1 4.34 1 4 C0.67 2.68 0.34 1.36 0 0 Z " fill="#7A69D6" transform="translate(96,127)"/>
<path d="M0 0 C0.33 0 0.66 0 1 0 C0.81031587 8.10468556 -0.98378594 15.69152623 -6.6640625 21.78515625 C-7.10492188 22.18605469 -7.54578125 22.58695313 -8 23 C-8.33 21.35 -8.66 19.7 -9 18 C-8.34 18 -7.68 18 -7 18 C-7 16.35 -7 14.7 -7 13 C-6.34 13 -5.68 13 -5 13 C-2.66608797 10.21885944 -2.66608797 10.21885944 -3.375 7.3125 C-3.684375 6.1678125 -3.684375 6.1678125 -4 5 C-2.68 4.67 -1.36 4.34 0 4 C0 2.68 0 1.36 0 0 Z " fill="#7E5BD4" transform="translate(239,206)"/>
<path d="M0 0 C0.33 0 0.66 0 1 0 C1.75725539 13.59694122 0.63092019 26.27389391 -7 38 C-7.33 36.68 -7.66 35.36 -8 34 C-7.34 34 -6.68 34 -6 34 C-6 32.68 -6 31.36 -6 30 C-5.34 30 -4.68 30 -4 30 C-4 28.02 -4 26.04 -4 24 C-3.34 24 -2.68 24 -2 24 C-2.020625 22.700625 -2.04125 21.40125 -2.0625 20.0625 C-2.08399454 18.70834367 -2.07148199 17.35243917 -2 16 C-1.67 15.67 -1.34 15.34 -1 15 C-0.76346477 12.47403741 -0.57826308 9.96892793 -0.4375 7.4375 C-0.37272461 6.37112305 -0.37272461 6.37112305 -0.30664062 5.28320312 C-0.20028223 3.52238088 -0.09961154 1.7612168 0 0 Z " fill="#806ADC" transform="translate(179,116)"/>
<path d="M0 0 C0.66 0.33 1.32 0.66 2 1 C1.67 7.27 1.34 13.54 1 20 C-1.64 19.67 -4.28 19.34 -7 19 C-6.38125 18.13375 -5.7625 17.2675 -5.125 16.375 C-1.78674984 11.07307327 -0.74165426 6.18045219 0 0 Z " fill="#8A3CD9" transform="translate(763,146)"/>
<path d="M0 0 C0 0.99 0 1.98 0 3 C-9.01814321 4.14516104 -17.9280648 4.09471858 -27 4 C-27 3.34 -27 2.68 -27 2 C-26.42032471 1.97494385 -25.84064941 1.9498877 -25.2434082 1.92407227 C-22.59957893 1.80753766 -19.95605591 1.68507318 -17.3125 1.5625 C-16.40048828 1.52318359 -15.48847656 1.48386719 -14.54882812 1.44335938 C-13.66259766 1.40146484 -12.77636719 1.35957031 -11.86328125 1.31640625 C-10.64572144 1.26141968 -10.64572144 1.26141968 -9.40356445 1.20532227 C-6.22601868 0.93388336 -3.18408443 0 0 0 Z " fill="#8C76E4" transform="translate(139,194)"/>
<path d="M0 0 C8.25 0 16.5 0 25 0 C25 0.33 25 0.66 25 1 C24.28344238 1.08564209 23.56688477 1.17128418 22.82861328 1.25952148 C19.59360063 1.6483426 16.35930633 2.04284855 13.125 2.4375 C11.99707031 2.57220703 10.86914062 2.70691406 9.70703125 2.84570312 C8.09248047 3.04389648 8.09248047 3.04389648 6.4453125 3.24609375 C5.45031738 3.36654053 4.45532227 3.4869873 3.43017578 3.61108398 C0.99888371 3.87545305 0.99888371 3.87545305 -1 5 C-0.67 3.35 -0.34 1.7 0 0 Z " fill="#7757BC" transform="translate(646,116)"/>
<path d="M0 0 C1.33867912 4.01603737 0.16997284 6.98258005 -0.875 10.9375 C-2.64185192 17.95616175 -3.7204936 24.7468088 -4 32 C-4.66 31.67 -5.32 31.34 -6 31 C-5.6214258 23.49378747 -4.82163979 16.15499716 -3.5625 8.75 C-3.37917114 7.62380249 -3.37917114 7.62380249 -3.19213867 6.47485352 C-2.86552354 4.63591908 -2.4410603 2.81488928 -2 1 C-1.34 0.67 -0.68 0.34 0 0 Z " fill="#7268E0" transform="translate(51,96)"/>
<path d="M0 0 C4.62 0 9.24 0 14 0 C14 0.99 14 1.98 14 3 C13.31292969 3.13277344 12.62585938 3.26554687 11.91796875 3.40234375 C10.56638672 3.66724609 10.56638672 3.66724609 9.1875 3.9375 C7.84751953 4.19853516 7.84751953 4.19853516 6.48046875 4.46484375 C3.88602829 4.97741153 3.88602829 4.97741153 1 6 C1 7.98 1 9.96 1 12 C0.67 12 0.34 12 0 12 C0 8.04 0 4.08 0 0 Z " fill="#5342D2" transform="translate(359,96)"/>
<path d="M0 0 C0.33 0 0.66 0 1 0 C1.36247871 2.60325616 1.71527655 5.20720402 2.0625 7.8125 C2.16626953 8.55048828 2.27003906 9.28847656 2.37695312 10.04882812 C2.82086566 13.43174779 3.09314992 15.72055025 2 19 C2.33 19.66 2.66 20.32 3 21 C6.04581269 21.46954261 6.04581269 21.46954261 9.5625 21.625 C11.35880859 21.73714844 11.35880859 21.73714844 13.19140625 21.8515625 C14.11824219 21.90054688 15.04507812 21.94953125 16 22 C16 22.33 16 22.66 16 23 C10.72 23 5.44 23 0 23 C0 15.41 0 7.82 0 0 Z " fill="#5F46D4" transform="translate(417,143)"/>
<path d="M0 0 C8.13448006 -0.35887412 8.13448006 -0.35887412 11.5625 1.0625 C13.7214109 3.97233643 13.26484554 6.4907966 13 10 C12.34 10 11.68 10 11 10 C11 9.34 11 8.68 11 8 C10.34 7.67 9.68 7.34 9 7 C9.99 6.67 10.98 6.34 12 6 C10.02579865 3.47740939 9.03254358 3.0070192 5.8125 2.3125 C4.884375 2.209375 3.95625 2.10625 3 2 C2.34 5.63 1.68 9.26 1 13 C0.67 13 0.34 13 0 13 C0 8.71 0 4.42 0 0 Z " fill="#8575DA" transform="translate(127,130)"/>
<path d="M0 0 C0.33 0.66 0.66 1.32 1 2 C0.01377831 3.74232499 -0.97904959 5.48180103 -2.02734375 7.1875 C-3.17162014 9.07924421 -3.17162014 9.07924421 -3.4375 11.8125 C-3.623125 12.534375 -3.80875 13.25625 -4 14 C-6.25 15.1875 -6.25 15.1875 -9 16 C-9.928125 16.37125 -10.85625 16.7425 -11.8125 17.125 C-12.534375 17.41375 -13.25625 17.7025 -14 18 C-13.175 17.071875 -12.35 16.14375 -11.5 15.1875 C-7.34916717 10.36141207 -3.69105568 5.18059338 0 0 Z " fill="#8166E3" transform="translate(183,161)"/>
<path d="M0 0 C0.66 0.33 1.32 0.66 2 1 C2 3.31 2 5.62 2 8 C-0.12437212 8.19448477 -2.24953191 8.38038289 -4.375 8.5625 C-5.55835938 8.66691406 -6.74171875 8.77132812 -7.9609375 8.87890625 C-11 9 -11 9 -13 8 C-13.33 8.99 -13.66 9.98 -14 11 C-14.66 9.68 -15.32 8.36 -16 7 C-11.95520612 5.03388498 -9.13114252 4.88668764 -4.6875 5.375 C-3.61886719 5.48585937 -2.55023438 5.59671875 -1.44921875 5.7109375 C-0.23685547 5.85402344 -0.23685547 5.85402344 1 6 C0.67 4.02 0.34 2.04 0 0 Z " fill="#4942CA" transform="translate(321,132)"/>
<path d="M0 0 C0.4125 0.474375 0.825 0.94875 1.25 1.4375 C0.26 1.7675 -0.73 2.0975 -1.75 2.4375 C-1.75 8.3775 -1.75 14.3175 -1.75 20.4375 C-2.08 20.4375 -2.41 20.4375 -2.75 20.4375 C-2.75 13.5075 -2.75 6.5775 -2.75 -0.5625 C-7.37 -0.5625 -11.99 -0.5625 -16.75 -0.5625 C-16.75 -0.8925 -16.75 -1.2225 -16.75 -1.5625 C-15.00093341 -1.75851608 -13.25068154 -1.94397403 -11.5 -2.125 C-10.52546875 -2.22941406 -9.5509375 -2.33382812 -8.546875 -2.44140625 C-4.94281319 -2.59744803 -2.71857157 -2.42729605 0 0 Z " fill="#8147C5" transform="translate(782.75,146.5625)"/>
<path d="M0 0 C7.92 0 15.84 0 24 0 C24 0.66 24 1.32 24 2 C21.12546578 2.22297226 18.2513818 2.42878171 15.375 2.625 C14.56675781 2.68945312 13.75851562 2.75390625 12.92578125 2.8203125 C8.12222508 3.13273892 4.52932939 2.92020113 0 1 C0 0.67 0 0.34 0 0 Z " fill="#6F59CB" transform="translate(552,116)"/>
<path d="M0 0 C0.33 0 0.66 0 1 0 C1 6.6 1 13.2 1 20 C-1.72842061 21.36421031 -3.60953318 20.87807211 -6.625 20.5625 C-7.62789062 20.46066406 -8.63078125 20.35882813 -9.6640625 20.25390625 C-10.43492187 20.17011719 -11.20578125 20.08632812 -12 20 C-11 18.4375 -11 18.4375 -9 17 C-6.36 17.33 -3.72 17.66 -1 18 C-0.505 9.09 -0.505 9.09 0 0 Z " fill="#7946B3" transform="translate(764,147)"/>
<path d="M0 0 C2.05078125 0.03255208 4.1015625 0.06510417 6.15234375 0.09765625 C6.15234375 0.42765625 6.15234375 0.75765625 6.15234375 1.09765625 C3.84234375 1.09765625 1.53234375 1.09765625 -0.84765625 1.09765625 C-0.96882812 2.1340625 -1.09 3.17046875 -1.21484375 4.23828125 C-1.38372806 5.60812063 -1.55302036 6.97790974 -1.72265625 8.34765625 C-1.80128906 9.02957031 -1.87992188 9.71148437 -1.9609375 10.4140625 C-2.41411458 14.00461936 -2.94151363 16.99016325 -4.84765625 20.09765625 C-5.09457939 13.52675713 -4.81901876 7.41464999 -2.84765625 1.09765625 C-1.84765625 0.09765625 -1.84765625 0.09765625 0 0 Z " fill="#7846C3" transform="translate(659.84765625,126.90234375)"/>
<path d="M0 0 C2.3828125 0.0234375 2.3828125 0.0234375 5.125 0.375 C6.03507812 0.48585938 6.94515625 0.59671875 7.8828125 0.7109375 C8.93082031 0.85402344 8.93082031 0.85402344 10 1 C10.33 2.32 10.66 3.64 11 5 C8 5 8 5 5.4375 4.4375 C3.00235139 3.74957739 3.00235139 3.74957739 1 5 C0.01 4.01 -0.98 3.02 -2 2 C-1.34 1.34 -0.68 0.68 0 0 Z " fill="#4E37D6" transform="translate(421,96)"/>
<path d="M0 0 C0.66 0.33 1.32 0.66 2 1 C-4.20109587 5.61476902 -10.39421427 6.1035846 -18 5 C-20.39453125 3.47265625 -20.39453125 3.47265625 -22 2 C-19.33333333 2 -16.66666667 2 -14 2 C-14 2.66 -14 3.32 -14 4 C-8.555 3.505 -8.555 3.505 -3 3 C-3 2.34 -3 1.68 -3 1 C-2.01 0.67 -1.02 0.34 0 0 Z " fill="#7B45BF" transform="translate(718,163)"/>
<path d="M0 0 C0 0.33 0 0.66 0 1 C-1.65 1 -3.3 1 -5 1 C-5 1.66 -5 2.32 -5 3 C-7.64 3.99 -10.28 4.98 -13 6 C-13 5.34 -13 4.68 -13 4 C-15.31 4.66 -17.62 5.32 -20 6 C-15.49970434 0.62673729 -6.67359781 -0.54110253 0 0 Z " fill="#7740C4" transform="translate(716,135)"/>
<path d="M0 0 C0.94921875 2.50390625 0.94921875 2.50390625 1.6875 5.5625 C2.06455078 7.08037109 2.06455078 7.08037109 2.44921875 8.62890625 C2.63097656 9.41136719 2.81273437 10.19382812 3 11 C0.44971017 9.72485508 0.06918289 8.59658703 -1 6 C-1 5.01 -1 4.02 -1 3 C-1.598125 3.226875 -2.19625 3.45375 -2.8125 3.6875 C-3.534375 3.790625 -4.25625 3.89375 -5 4 C-6.75 2.5625 -6.75 2.5625 -8 1 C-3.375 -1.125 -3.375 -1.125 0 0 Z " fill="#564BBD" transform="translate(326,97)"/>
<path d="M0 0 C1.32 0.33 2.64 0.66 4 1 C3.79375 1.61875 3.5875 2.2375 3.375 2.875 C3.25125 3.57625 3.1275 4.2775 3 5 C3.66 5.66 4.32 6.32 5 7 C4.2884375 7.495 4.2884375 7.495 3.5625 8 C1.14208385 11.09813267 1.31801083 14.12026792 1 18 C0.67 18 0.34 18 0 18 C0 12.06 0 6.12 0 0 Z " fill="#6564EF" transform="translate(3,30)"/>
<path d="M0 0 C0.66 0 1.32 0 2 0 C0.53181332 3.10742423 -1.20025 5.90471739 -3.125 8.75 C-3.93324219 9.94882813 -3.93324219 9.94882813 -4.7578125 11.171875 C-5.16773438 11.77515625 -5.57765625 12.3784375 -6 13 C-7.25541557 9.23375329 -6.37061958 7.62811066 -5 4 C-5.66 3.67 -6.32 3.34 -7 3 C-4.50935112 2.31292445 -2.62113708 2 0 2 C0 1.34 0 0.68 0 0 Z " fill="#756AE2" transform="translate(65,72)"/>
<path d="M0 0 C0.33 0 0.66 0 1 0 C1.36116046 1.4774746 1.71375048 2.95704675 2.0625 4.4375 C2.25972656 5.26121094 2.45695313 6.08492187 2.66015625 6.93359375 C2.77230469 7.61550781 2.88445313 8.29742187 3 9 C2 10 2 10 -0.94140625 10.09765625 C-2.73384766 10.08025391 -2.73384766 10.08025391 -4.5625 10.0625 C-6.35880859 10.04896484 -6.35880859 10.04896484 -8.19140625 10.03515625 C-9.11824219 10.02355469 -10.04507813 10.01195312 -11 10 C-11 9.34 -11 8.68 -11 8 C-7.37 8 -3.74 8 0 8 C0 5.36 0 2.72 0 0 Z " fill="#8845BF" transform="translate(795,157)"/>
<path d="M0 0 C0.33 0 0.66 0 1 0 C1.02505615 0.65597168 1.0501123 1.31194336 1.07592773 1.98779297 C1.1917326 4.95040183 1.31452886 7.91268031 1.4375 10.875 C1.47681641 11.90753906 1.51613281 12.94007813 1.55664062 14.00390625 C1.59853516 14.99003906 1.64042969 15.97617188 1.68359375 16.9921875 C1.72025146 17.90339355 1.75690918 18.81459961 1.79467773 19.75341797 C1.86577065 22.03483481 1.86577065 22.03483481 3 24 C2.67 24.66 2.34 25.32 2 26 C3.32 26.33 4.64 26.66 6 27 C4.02 27 2.04 27 0 27 C0 18.09 0 9.18 0 0 Z " fill="#6545CC" transform="translate(462,139)"/>
<path d="M0 0 C0.12375 0.5775 0.2475 1.155 0.375 1.75 C0.92568999 4.01097195 0.92568999 4.01097195 2 6 C3.87187475 9.74374951 4.11716784 13.09524399 4.0625 17.25 C4.05347656 18.14203125 4.04445312 19.0340625 4.03515625 19.953125 C4.02355469 20.62859375 4.01195312 21.3040625 4 22 C3.67 22 3.34 22 3 22 C2.91363281 21.2265625 2.82726562 20.453125 2.73828125 19.65625 C1.79489428 12.66306953 0.32603489 7.61393841 -4 2 C-2.68 1.34 -1.36 0.68 0 0 Z " fill="#7B68DD" transform="translate(151,119)"/>
<path d="M0 0 C0.33 0.99 0.66 1.98 1 3 C-0.03125 3.4125 -1.0625 3.825 -2.125 4.25 C-7.23993089 6.44063707 -11.60541277 9.61954828 -16 13 C-16.66 12.67 -17.32 12.34 -18 12 C-12.26719191 7.16000629 -6.87214452 3.05428645 0 0 Z " fill="#7A6FDF" transform="translate(97,68)"/>
<path d="M0 0 C0.33 0.99 0.66 1.98 1 3 C6.445 2.505 6.445 2.505 12 2 C12.33 2.99 12.66 3.98 13 5 C6.565 5.495 6.565 5.495 0 6 C-1 3 -1 3 0 0 Z " fill="#4F4BAB" transform="translate(281,162)"/>
<path d="M0 0 C2.33667859 6.86794044 -2.14422199 14.74448626 -5 21 C-5.66 21 -6.32 21 -7 21 C-4.96192707 13.8821847 -2.59655258 6.93292719 0 0 Z " fill="#554EB7" transform="translate(289,140)"/>
<path d="M0 0 C0.99 0.33 1.98 0.66 3 1 C3 9.58 3 18.16 3 27 C2.67 27 2.34 27 2 27 C1.97494385 26.39526855 1.9498877 25.79053711 1.92407227 25.16748047 C1.80736994 22.4031438 1.68498266 19.63908634 1.5625 16.875 C1.52318359 15.92367187 1.48386719 14.97234375 1.44335938 13.9921875 C1.22946977 9.25371013 0.93438179 4.66405699 0 0 Z " fill="#605CBB" transform="translate(431,96)"/>
<path d="M0 0 C0 3.96 0 7.92 0 12 C-0.33 12 -0.66 12 -1 12 C-1 8.37 -1 4.74 -1 1 C-3.3821875 1.4021875 -3.3821875 1.4021875 -5.8125 1.8125 C-6.70582031 1.96332031 -7.59914063 2.11414063 -8.51953125 2.26953125 C-11.18321256 3.05395393 -12.25690322 3.88627799 -14 6 C-14 4.35 -14 2.7 -14 1 C-9.29654425 -0.21379503 -4.82569313 -0.07202527 0 0 Z " fill="#6946BA" transform="translate(521,126)"/>
<path d="M0 0 C0.99 0.33 1.98 0.66 3 1 C3 4.96 3 8.92 3 13 C-2.61 13 -8.22 13 -14 13 C-14 12.67 -14 12.34 -14 12 C-8.72 12 -3.44 12 2 12 C1.855625 10.576875 1.71125 9.15375 1.5625 7.6875 C1.48128906 6.88699219 1.40007813 6.08648437 1.31640625 5.26171875 C1.04734307 2.83912821 1.04734307 2.83912821 0 0 Z " fill="#6F50B1" transform="translate(579,116)"/>
<path d="M0 0 C1.32 0.33 2.64 0.66 4 1 C3.67 1.33 3.34 1.66 3 2 C2.62947661 7.17735677 2.62947661 7.17735677 4 12 C3.01 12 2.02 12 1 12 C-1.40274858 8.39587713 -1.26094571 6.43520139 -0.5 2.25 C-0.335 1.5075 -0.17 0.765 0 0 Z " fill="#7F6DE4" transform="translate(86,144)"/>
<path d="M0 0 C0.33 0.99 0.66 1.98 1 3 C3.48020497 2.88658509 5.95844969 2.75985314 8.4375 2.625 C9.14455078 2.5940625 9.85160156 2.563125 10.58007812 2.53125 C12.39239188 2.42719371 14.19817988 2.22080108 16 2 C16.33 1.34 16.66 0.68 17 0 C17.66 0.33 18.32 0.66 19 1 C17.4765625 2.9765625 17.4765625 2.9765625 15 5 C12.29498319 5.34619521 10.05871404 5.47268308 7.375 5.375 C6.3540625 5.37306641 6.3540625 5.37306641 5.3125 5.37109375 C0.28161154 5.28161154 0.28161154 5.28161154 -2 3 C-1.34 2.01 -0.68 1.02 0 0 Z " fill="#6249A0" transform="translate(488,163)"/>
<path d="M0 0 C0.66 0.99 1.32 1.98 2 3 C1.67 3.66 1.34 4.32 1 5 C2.32 4.67 3.64 4.34 5 4 C5 4.66 5 5.32 5 6 C5.66 6.33 6.32 6.66 7 7 C4.03 7 1.06 7 -2 7 C-2 5.02 -2 3.04 -2 1 C-1.34 0.67 -0.68 0.34 0 0 Z " fill="#4035E0" transform="translate(334,161)"/>
<path d="M0 0 C0.66 0 1.32 0 2 0 C2.2935821 3.05325385 2.42375383 5.95525026 2 9 C-0.25 11.625 -0.25 11.625 -3 13 C-5.3125 12.75 -5.3125 12.75 -7 12 C-6.21625 11.690625 -5.4325 11.38125 -4.625 11.0625 C-0.80738984 8.06294916 -0.65265251 4.64649622 0 0 Z " fill="#7F46C2" transform="translate(721,144)"/>
<path d="M0 0 C1.37605154 2.75210308 0.57652184 3.86924579 -0.375 6.75 C-1.56299453 10.49299646 -2.48615983 14.09481473 -3 18 C-3.33 18 -3.66 18 -4 18 C-4.738041 5.33029613 -4.738041 5.33029613 0 0 Z " fill="#7547B4" transform="translate(695,141)"/>
<path d="M0 0 C2.04795423 1.9626228 2.94976638 3.4277307 3.19921875 6.26953125 C3.18858877 8.51954383 3.12958525 10.75385562 3 13 C2.01 13 1.02 13 0 13 C0 8.66666667 0 4.33333333 0 0 Z M-2 14 C0 15 0 15 0 15 Z " fill="#7460E2" transform="translate(235,24)"/>
<path d="M0 0 C7.48291572 6.15034169 7.48291572 6.15034169 10 10 C9.67 10.66 9.34 11.32 9 12 C7.14453125 9.70507812 7.14453125 9.70507812 5.2890625 7.41015625 C4.0333609 5.86733563 4.0333609 5.86733563 2 5 C2 5.66 2 6.32 2 7 C1.01 6.67 0.02 6.34 -1 6 C-0.67 4.02 -0.34 2.04 0 0 Z " fill="#7E6BDE" transform="translate(160,79)"/>
<path d="M0 0 C0 0.66 0 1.32 0 2 C-0.639375 2.28875 -1.27875 2.5775 -1.9375 2.875 C-4.15206079 3.82823451 -4.15206079 3.82823451 -5 6 C-6.6476038 6.71247732 -8.31763529 7.37400383 -10 8 C-11.34050052 8.65213539 -12.67661368 9.31379969 -14 10 C-10.6083172 5.47775627 -6.20114471 0 0 0 Z " fill="#6A66CB" transform="translate(25,7)"/>
<path d="M0 0 C-1.28627711 1.17260611 -2.57919783 2.3379283 -3.875 3.5 C-4.59429687 4.1496875 -5.31359375 4.799375 -6.0546875 5.46875 C-8 7 -8 7 -10 7 C-9.375 4.125 -9.375 4.125 -8 1 C-2.89361702 -1.44680851 -2.89361702 -1.44680851 0 0 Z " fill="#7E5ADA" transform="translate(231,230)"/>
<path d="M0 0 C2.97 0.33 5.94 0.66 9 1 C9.33 2.98 9.66 4.96 10 7 C5.56541027 5.6062718 3.12621626 3.39417765 0 0 Z " fill="#7F6BE3" transform="translate(83,169)"/>
<path d="M0 0 C0.33 0 0.66 0 1 0 C1.04898438 1.03640625 1.09796875 2.0728125 1.1484375 3.140625 C1.22349597 4.51044208 1.29904247 5.88023248 1.375 7.25 C1.4059375 7.93191406 1.436875 8.61382812 1.46875 9.31640625 C1.68259374 12.98739038 2.01077055 15.86251616 4 19 C2.68 19 1.36 19 0 19 C0 12.73 0 6.46 0 0 Z " fill="#6649BA" transform="translate(520,148)"/>
<path d="M0 0 C0.99 0 1.98 0 3 0 C3.33 1.98 3.66 3.96 4 6 C3.34 5.01 2.68 4.02 2 3 C1.01 5.64 0.02 8.28 -1 11 C-1.33 11 -1.66 11 -2 11 C-2.25 3.375 -2.25 3.375 0 0 Z " fill="#574DBE" transform="translate(313,113)"/>
<path d="M0 0 C5.96564796 0.50771472 10.63809899 2.38592128 16 5 C12.21801096 6.26066301 10.63636792 5.42292658 7 4 C6.67 3.67 6.34 3.34 6 3 C3.67182036 2.63239269 1.3381615 2.29758419 -1 2 C-0.67 1.34 -0.34 0.68 0 0 Z " fill="#7F70DE" transform="translate(132,65)"/>
<path d="M0 0 C-3.96 1.98 -7.92 3.96 -12 6 C-12 4.68 -12 3.36 -12 2 C-10.56656 1.46809459 -9.12804633 0.94984742 -7.6875 0.4375 C-6.48673828 0.00244141 -6.48673828 0.00244141 -5.26171875 -0.44140625 C-3 -1 -3 -1 0 0 Z " fill="#786DE1" transform="translate(91,57)"/>
<path d="M0 0 C1.65 0.33 3.3 0.66 5 1 C4.67 2.32 4.34 3.64 4 5 C2.35 5.33 0.7 5.66 -1 6 C-0.67 4.02 -0.34 2.04 0 0 Z " fill="#895CF5" transform="translate(225,225)"/>
<path d="M0 0 C0.33 0 0.66 0 1 0 C1.59241737 4.1469216 2.06220289 8.12158038 2 12.3125 C1.80565169 15.94400133 1.80565169 15.94400133 3 19 C2.01 18.67 1.02 18.34 0 18 C0 12.06 0 6.12 0 0 Z " fill="#8F42DA" transform="translate(781,149)"/>
<path d="M0 0 C2.64 0.33 5.28 0.66 8 1 C5.06171403 3.50298434 2.82097239 4.46930939 -1 5 C-0.67 3.35 -0.34 1.7 0 0 Z " fill="#805ADE" transform="translate(213,236)"/>
<path d="M0 0 C0.66 0 1.32 0 2 0 C2.33 0.99 2.66 1.98 3 3 C3.99 3.33 4.98 3.66 6 4 C6 5.98 6 7.96 6 10 C5.01 10.495 5.01 10.495 4 11 C2.68 7.37 1.36 3.74 0 0 Z " fill="#7C6BE2" transform="translate(63,140)"/>
<path d="M0 0 C0.99 0.33 1.98 0.66 3 1 C2.67 1.99 2.34 2.98 2 4 C1.85596652 5.33363703 1.75409577 6.67218046 1.68359375 8.01171875 C1.64169922 8.76904297 1.59980469 9.52636719 1.55664062 10.30664062 C1.51732422 11.09232422 1.47800781 11.87800781 1.4375 12.6875 C1.39431641 13.48478516 1.35113281 14.28207031 1.30664062 15.10351562 C1.20072632 17.06881447 1.09987449 19.03438496 1 21 C0.67 21 0.34 21 0 21 C0 14.07 0 7.14 0 0 Z " fill="#5D46D6" transform="translate(417,109)"/>
<path d="M0 0 C0.99 0 1.98 0 3 0 C2.38461538 6.52307692 2.38461538 6.52307692 0.4375 8.9375 C-0.036875 9.288125 -0.51125 9.63875 -1 10 C-1.33 8.35 -1.66 6.7 -2 5 C-1.34 5 -0.68 5 0 5 C0 3.35 0 1.7 0 0 Z " fill="#855AE7" transform="translate(232,219)"/>
<path d="M0 0 C1.05767578 0.42925781 1.05767578 0.42925781 2.13671875 0.8671875 C5.01205232 2.00476831 7.90452186 3.07392356 10.8125 4.125 C11.78832031 4.47820312 12.76414062 4.83140625 13.76953125 5.1953125 C14.87361328 5.59363281 14.87361328 5.59363281 16 6 C15.67 6.66 15.34 7.32 15 8 C12.68197845 7.24327813 10.3715787 6.47065692 8.0625 5.6875 C7.40314453 5.47416016 6.74378906 5.26082031 6.06445312 5.04101562 C4.34313703 4.44958907 2.66668068 3.73136173 1 3 C0.67 2.01 0.34 1.02 0 0 Z " fill="#8270DC" transform="translate(84,187)"/>
<path d="M0 0 C0 0.99 0 1.98 0 3 C-2.64 3 -5.28 3 -8 3 C-8.33 3.66 -8.66 4.32 -9 5 C-9 3.68 -9 2.36 -9 1 C-5.8035914 -0.06546953 -3.34252724 -0.07427838 0 0 Z " fill="#4A31DE" transform="translate(472,96)"/>
<path d="M0 0 C1.65 0 3.3 0 5 0 C5 0.66 5 1.32 5 2 C5.66 2.33 6.32 2.66 7 3 C6.67 3.99 6.34 4.98 6 6 C3.37812506 4.95125002 2.20628639 4.35068687 0.75 1.875 C0.5025 1.25625 0.255 0.6375 0 0 Z " fill="#725FE0" transform="translate(10,228)"/>
<path d="M0 0 C0.33 0 0.66 0 1 0 C1 1.65 1 3.3 1 5 C4.63 5 8.26 5 12 5 C12 5.33 12 5.66 12 6 C10.02145742 6.19397476 8.0421352 6.38001321 6.0625 6.5625 C4.40927734 6.71912109 4.40927734 6.71912109 2.72265625 6.87890625 C1.37494141 6.93884766 1.37494141 6.93884766 0 7 C-1 6 -1 6 -1.125 3.5 C-1 1 -1 1 0 0 Z " fill="#7C50B1" transform="translate(722,161)"/>
<path d="M0 0 C0.99 1.32 1.98 2.64 3 4 C0.35261084 5.4606285 -0.89448334 6 -4 6 C-4 6.66 -4 7.32 -4 8 C-4.66 7.67 -5.32 7.34 -6 7 C-4.07423885 4.56070254 -2.19909405 2.19909405 0 0 Z " fill="#823BDD" transform="translate(719,158)"/>
<path d="M0 0 C4.875 1.875 4.875 1.875 6 3 C6.04092937 5.33297433 6.04241723 7.66705225 6 10 C5.34 10 4.68 10 4 10 C4 9.34 4 8.68 4 8 C3.34 7.67 2.68 7.34 2 7 C2.99 6.67 3.98 6.34 5 6 C3.36587557 4.29159719 2.13093906 3.06546953 0 2 C0 1.34 0 0.68 0 0 Z " fill="#826FE2" transform="translate(134,130)"/>
<path d="M0 0 C0.33 0 0.66 0 1 0 C1.33 1.98 1.66 3.96 2 6 C1.360625 6.268125 0.72125 6.53625 0.0625 6.8125 C-2.33131686 7.88667752 -2.33131686 7.88667752 -3 11 C-3.33 10.34 -3.66 9.68 -4 9 C-3.22265625 6.8359375 -3.22265625 6.8359375 -2.0625 4.375 C-1.68222656 3.55773437 -1.30195312 2.74046875 -0.91015625 1.8984375 C-0.60980469 1.27195312 -0.30945313 0.64546875 0 0 Z " fill="#7F75E2" transform="translate(67,96)"/>
<path d="M0 0 C2.31 0 4.62 0 7 0 C4.03716687 2.38672669 1.05729491 4.7353371 -2 7 C-1.125 2.25 -1.125 2.25 0 0 Z " fill="#7A6CDB" transform="translate(93,91)"/>
<path d="M0 0 C0.66 0 1.32 0 2 0 C4.74877106 2.74877106 5.97015014 4.2388285 6.125 8.1875 C6.08375 9.115625 6.0425 10.04375 6 11 C3.13546142 7.58983503 1.65296434 4.09305456 0 0 Z " fill="#816DE0" transform="translate(183,85)"/>
<path d="M0 0 C0.66 0 1.32 0 2 0 C4.29013653 3.4352048 4.17842973 4.985331 4 9 C1.47411298 6.63707344 0.11179163 5.33537489 -1 2 C-0.67 1.34 -0.34 0.68 0 0 Z " fill="#7B69E3" transform="translate(72,154)"/>
<path d="M0 0 C0.33 0 0.66 0 1 0 C0.40546697 9.59453303 0.40546697 9.59453303 -3 13 C-4.23593891 9.29218328 -3.5678132 8.32489747 -2.0625 4.8125 C-1.68222656 3.91144531 -1.30195313 3.01039063 -0.91015625 2.08203125 C-0.60980469 1.39496094 -0.30945313 0.70789063 0 0 Z " fill="#8872E4" transform="translate(191,142)"/>
<path d="M0 0 C0.33 0 0.66 0 1 0 C1 2.64 1 5.28 1 8 C0.34 8 -0.32 8 -1 8 C-1.12375 8.639375 -1.2475 9.27875 -1.375 9.9375 C-1.58125 10.618125 -1.7875 11.29875 -2 12 C-2.99 12.495 -2.99 12.495 -4 13 C-3.52140759 11.39566191 -3.04210442 9.79153584 -2.5625 8.1875 C-2.29566406 7.29417969 -2.02882813 6.40085938 -1.75390625 5.48046875 C-1.19612127 3.64526945 -0.60655425 1.81966274 0 0 Z " fill="#544DB9" transform="translate(294,126)"/>
<path d="M0 0 C1.67542976 0.28604898 3.34385343 0.61781233 5 1 C4.67 1.99 4.34 2.98 4 4 C2.67203709 4.35412344 1.33783393 4.68521554 0 5 C-1.73026102 6.47890069 -1.73026102 6.47890069 -3 8 C-1.125 1.125 -1.125 1.125 0 0 Z " fill="#564DB4" transform="translate(306,96)"/>
<path d="M0 0 C0.33 0.66 0.66 1.32 1 2 C-0.11375 2.309375 -1.2275 2.61875 -2.375 2.9375 C-5.7945155 3.82326483 -5.7945155 3.82326483 -8 5 C-8.33 3.68 -8.66 2.36 -9 1 C-6.04335481 -0.4783226 -3.25770263 -0.06032783 0 0 Z " fill="#7465DE" transform="translate(122,75)"/>
<path d="M0 0 C0.66 0 1.32 0 2 0 C1.88648483 1.81325551 1.75887039 3.62563357 1.625 5.4375 C1.55539062 6.44683594 1.48578125 7.45617187 1.4140625 8.49609375 C1.27742188 9.32238281 1.14078125 10.14867187 1 11 C0.01 11.495 0.01 11.495 -1 12 C-2.36884358 7.48281619 -1.47075246 4.41225737 0 0 Z " fill="#524BC5" transform="translate(298,156)"/>
<path d="M0 0 C3.99500618 1.3697164 6.80009492 3.25722422 10 6 C8.02 6 6.04 6 4 6 C3.67 5.01 3.34 4.02 3 3 C2.01 2.67 1.02 2.34 0 2 C0 1.34 0 0.68 0 0 Z " fill="#7D6CDF" transform="translate(148,71)"/>
<path d="M0 0 C3.55780196 0.60990891 6.6828589 1.5783681 10 3 C9.67 3.99 9.34 4.98 9 6 C6.03 4.35 3.06 2.7 0 1 C0 0.67 0 0.34 0 0 Z " fill="#8474DF" transform="translate(154,58)"/>
<path d="M0 0 C2.91517292 1.07401108 4.77810176 1.77810176 7 4 C4.92446352 4.5534764 3.15634036 5 1 5 C0.67 3.35 0.34 1.7 0 0 Z " fill="#7E69E7" transform="translate(77,183)"/>
<path d="M0 0 C0.99 0.33 1.98 0.66 3 1 C2.67 2.32 2.34 3.64 2 5 C0.35 5 -1.3 5 -3 5 C-2.01 3.35 -1.02 1.7 0 0 Z " fill="#875EF2" transform="translate(219,232)"/>
<path d="M0 0 C0.99 0.495 0.99 0.495 2 1 C2 1.66 2 2.32 2 3 C4.31 3.33 6.62 3.66 9 4 C9 4.33 9 4.66 9 5 C4.545 5.495 4.545 5.495 0 6 C0 4.02 0 2.04 0 0 Z " fill="#613FCC" transform="translate(549,162)"/>
<path d="M0 0 C0.99 0.33 1.98 0.66 3 1 C3 3.97 3 6.94 3 10 C1.19669467 6.39338934 0.53400897 3.91606575 0 0 Z " fill="#6255B3" transform="translate(431,96)"/>
<path d="M0 0 C0.33 0.99 0.66 1.98 1 3 C-1.31 3.33 -3.62 3.66 -6 4 C-6 3.34 -6 2.68 -6 2 C-4.02 1.34 -2.04 0.68 0 0 Z " fill="#5C4AC2" transform="translate(372,96)"/>
</svg>
